<?xml version="1.0" encoding="UTF-8"?>
<svg width="22px" height="18px" viewBox="0 0 22 18" version="1.1" xmlns="http://www.w3.org/2000/svg" xmlns:xlink="http://www.w3.org/1999/xlink">
    <!-- Generator: Sketch 43.1 (39012) - http://www.bohemiancoding.com/sketch -->
    <title></title>
    <desc>Created with Sketch.</desc>
    <defs></defs>
    <g id="Page-1" stroke="none" stroke-width="1" fill="none" fill-rule="evenodd">
        <g id="Landningssida-Länsförsäkringar" transform="translate(-559.000000, -852.000000)" fill="#FFFFFF">
            <g id="Group-27" transform="translate(143.000000, 825.000000)">
                <path d="M436.625,27.875 C436.997398,27.875 437.31966,28.0110663 437.591797,28.2832031 C437.863934,28.5553399 438,28.8776023 438,29.25 L438,43 C438,43.3723977 437.863934,43.6946601 437.591797,43.9667969 C437.31966,44.2389337 436.997398,44.375 436.625,44.375 L417.375,44.375 C417.002602,44.375 416.68034,44.2389337 416.408203,43.9667969 C416.136066,43.6946601 416,43.3723977 416,43 L416,29.25 C416,28.8776023 416.136066,28.5553399 416.408203,28.2832031 C416.68034,28.0110663 417.002602,27.875 417.375,27.875 L436.625,27.875 Z M423.820312,37.5429688 L418.363281,43 L435.636719,43 L430.179688,37.5429688 L427,39.6914062 L423.820312,37.5429688 Z M417.375,42.0117188 L422.660156,36.7695312 L417.375,33.1601562 L417.375,42.0117188 Z M431.339844,36.7265625 L436.625,42.0117188 L436.625,33.0742188 L431.339844,36.7265625 Z M436.625,29.25 L417.375,29.25 L417.375,31.484375 L427,38.0585938 L436.582031,31.4414062 L436.625,31.484375 L436.625,29.25 Z" id=""></path>
            </g>
        </g>
    </g>
</svg>