<?xml version="1.0" encoding="UTF-8"?>
<svg width="108px" height="101px" viewBox="0 0 108 101" version="1.1" xmlns="http://www.w3.org/2000/svg" xmlns:xlink="http://www.w3.org/1999/xlink">
    <!-- Generator: Sketch 43.1 (39012) - http://www.bohemiancoding.com/sketch -->
    <title>Group 38</title>
    <desc>Created with Sketch.</desc>
    <defs></defs>
    <g id="Page-1" stroke="none" stroke-width="1" fill="none" fill-rule="evenodd">
        <g id="Landningssida-Länsförsäkringar" transform="translate(-823.000000, -892.000000)" fill-rule="nonzero">
            <g id="Group-8" transform="translate(877.500000, 942.886364) scale(-1, 1) translate(-877.500000, -942.886364) translate(823.000000, 891.886364)">
                <g id="Group-5" transform="translate(0.930411, 0.035321)">
                    <g id="Group-38">
                        <path d="M68.5931881,98.9958461 C68.5931881,98.8665927 68.5916344,98.6221299 68.5870106,98.2701117 C68.5793536,97.6871633 68.5655927,97.012009 68.5442095,96.2522974 C68.4832201,94.0854387 68.3735087,91.6724691 68.202885,89.0744698 C67.71512,81.6475266 66.8369023,74.2185468 65.4682658,67.2720413 C65.3081234,66.45924 64.5193968,65.9301554 63.7065955,66.0902977 C62.8937942,66.2504401 62.3647096,67.0391667 62.5248519,67.851968 C63.865766,74.6577681 64.7294023,81.9634015 65.2093339,89.2710715 C65.377404,91.8301868 65.4854244,94.2059664 65.5453971,96.3367033 C65.5663506,97.0811501 65.5798062,97.7413201 65.5872694,98.3095133 C65.5917178,98.6481802 65.5931881,98.8795225 65.5931881,98.9958461 C65.5931881,99.8242732 66.264761,100.495846 67.0931881,100.495846 C67.9216152,100.495846 68.5931881,99.8242732 68.5931881,98.9958461 Z" id="Path-5" fill="#005CA9"></path>
                        <path d="M75.5038769,98.2064358 L74.0038769,98.2064358 C75.5038769,98.0487479 75.5068414,97.7343768 75.5158171,97.2738062 C75.5308851,96.5006241 75.5580554,95.60215 75.6003704,94.5888754 C75.7215042,91.6882085 75.9396994,88.4537473 76.2792043,84.9695571 C77.2487633,75.0193979 78.9934931,65.0719541 81.7028082,55.8037822 C81.9352499,55.0086329 81.4790854,54.1756058 80.6839361,53.9431641 C79.8887868,53.7107224 79.0557597,54.166887 78.823318,54.9620362 C76.0558452,64.4291572 74.2797828,74.5552415 73.293346,84.6786104 C72.9482524,88.220155 72.7263486,91.5095905 72.6029829,94.4637025 C72.5597231,95.4996006 72.5318811,96.4202901 72.5163866,97.2153523 C72.5070249,97.6957284 72.5038769,98.0295649 72.5038769,98.2064358 L74.0038769,98.2064358 C72.5038769,99.0348629 73.1754498,99.7064358 74.0038769,99.7064358 C74.832304,99.7064358 75.5038769,99.0348629 75.5038769,98.2064358 Z" id="Path-8" fill="#005CA9"></path>
                        <path d="M82.5175038,98.8868972 C82.5177354,98.7076594 82.5242369,98.3564355 82.5432684,97.8580979 C82.5752992,97.0193747 82.6323344,96.082781 82.7205461,95.0733444 C82.9721783,92.1938318 83.4217485,89.3168235 84.1148247,86.6468024 C84.9938854,83.2602906 86.2022833,80.469281 87.7538567,78.4839986 C88.2639896,77.831269 88.1483922,76.8885827 87.4956626,76.3784498 C86.842933,75.8683169 85.9002467,75.9839143 85.3901138,76.6366439 C83.5479063,78.9938009 82.1845741,82.1426587 81.2110583,85.8930513 C80.4715089,88.7421067 79.9970492,91.7783947 79.7319356,94.8121785 C79.6392863,95.8723956 79.5792896,96.8576232 79.5454538,97.7436115 C79.5335453,98.0554337 79.5257648,98.3331961 79.52131,98.5738517 C79.5185825,98.7211943 79.5175809,98.8252688 79.5175063,98.8830209 C79.5164359,99.7114473 80.1871405,100.383887 81.0155669,100.384958 C81.8439933,100.386028 82.5164334,99.7153236 82.5175038,98.8868972 Z" id="Path-9" fill="#005CA9"></path>
                        <path d="M75.8250035,50.2648917 C72.6476753,51.8088207 67.4591778,52.4142334 64.5307675,51.7352117 C60.9793685,50.9117352 58.7602466,47.3449284 59.5827773,43.7666373 C60.4043109,40.1926841 63.94731,37.9691289 67.4943464,38.7915939 C70.4045871,39.4664026 74.7768725,42.2685112 76.9735584,45.0447871 L79.3261903,43.1833031 C76.5780133,39.7100263 71.5476831,36.6518642 68.1719895,35.8691292 C63.0061775,34.6713125 57.8516485,37.9062498 56.6590268,43.0945638 C55.4664051,48.2828779 58.6873123,53.4598597 63.8531244,54.6576764 C67.2472981,55.4446965 73.1490359,54.9006255 77.1361656,52.9631974 L75.8250035,50.2648917 Z M75.8250035,50.2648917 C72.6476753,51.8088207 67.4591778,52.4142334 64.5307675,51.7352117 C60.9793685,50.9117352 58.7602466,47.3449284 59.5827773,43.7666373 C60.4043109,40.1926841 63.94731,37.9691289 67.4943464,38.7915939 C70.4045871,39.4664026 74.7768725,42.2685112 76.9735584,45.0447871 L79.3261903,43.1833031 C76.5780133,39.7100263 71.5476831,36.6518642 68.1719895,35.8691292 C63.0061775,34.6713125 57.8516485,37.9062498 56.6590268,43.0945638 C55.4664051,48.2828779 58.6873123,53.4598597 63.8531244,54.6576764 C67.2472981,55.4446965 73.1490359,54.9006255 77.1361656,52.9631974 L75.8250035,50.2648917 Z" id="Oval-5" fill="#005CA9"></path>
                        <path d="M89.9586925,47.7722811 C94.3847416,47.9416313 99.8499849,50.2440123 102.478981,52.5393189 C106.480221,56.0326941 106.904208,62.1224088 103.425984,66.1410773 C99.9477595,70.1597458 93.8844562,70.5855802 89.8832168,67.0922049 C87.2685344,64.8093955 84.2565098,59.7373147 83.4535462,55.3747824 L86.4039853,54.8317273 C87.046466,58.3223496 89.5992436,62.8617747 91.8562634,64.8323184 C94.6052937,67.2324233 98.7667372,66.9401593 101.157626,64.1777759 C103.555112,61.4077704 103.262566,57.2059464 100.505935,54.7992054 C98.2359563,52.8173479 93.3707669,50.9050296 89.84399,50.7700876 L89.9586925,47.7722811 Z M89.9586925,47.7722811 C94.3847416,47.9416313 99.8499849,50.2440123 102.478981,52.5393189 C106.480221,56.0326941 106.904208,62.1224088 103.425984,66.1410773 C99.9477595,70.1597458 93.8844562,70.5855802 89.8832168,67.0922049 C87.2685344,64.8093955 84.2565098,59.7373147 83.4535462,55.3747824 L86.4039853,54.8317273 C87.046466,58.3223496 89.5992436,62.8617747 91.8562634,64.8323184 C94.6052937,67.2324233 98.7667372,66.9401593 101.157626,64.1777759 C103.555112,61.4077704 103.262566,57.2059464 100.505935,54.7992054 C98.2359563,52.8173479 93.3707669,50.9050296 89.84399,50.7700876 L89.9586925,47.7722811 Z" id="Oval-5-Copy-3" fill="#005CA9"></path>
                        <path d="M52.7702434,97.9786488 C52.768852,97.9329188 52.7666029,97.8359424 52.7643,97.6894352 C52.7484002,96.6779431 52.7588307,95.3018483 52.8155258,93.6037814 C52.8984016,91.1215835 53.0673626,88.4022957 53.3422704,85.4886044 C54.0893596,77.5703582 55.4979813,69.3830742 57.7251456,61.2688494 C57.9444196,60.4699687 57.4745555,59.6445912 56.6756748,59.4253172 C55.876794,59.2060432 55.0514166,59.6759072 54.8321426,60.474788 C52.5558248,68.7680937 51.1181001,77.1245323 50.3555349,85.2068048 C49.8607774,90.4506385 49.7175659,94.7399412 49.7646705,97.7365868 C49.7672065,97.897913 49.7697962,98.0095787 49.7716309,98.0698796 C49.7968235,98.8979236 50.4885085,99.5487631 51.3165525,99.5235705 C52.1445965,99.4983778 52.795436,98.8066928 52.7702434,97.9786488 Z" id="Path-10" fill="#005CA9"></path>
                        <path d="M45.8573874,98.1190077 C45.8570657,98.0603315 45.855511,97.9532886 45.8518419,97.7991407 C45.8458643,97.5480079 45.8360092,97.2523017 45.8213948,96.9132836 C45.7799463,95.9517859 45.7088763,94.8322332 45.6011233,93.5647184 C45.2943263,89.9558175 44.7560237,85.8766675 43.9295981,81.4080363 C41.5710169,68.6547664 37.3796871,55.3180382 30.900406,42.0467373 C30.5369559,41.3022942 29.638831,40.9934384 28.8943879,41.3568885 C28.1499448,41.7203386 27.841089,42.6184635 28.2045391,43.3629066 C34.5578189,56.3761233 38.6681751,69.455195 40.9796223,81.9536029 C41.7877066,86.3230589 42.313206,90.3051889 42.6119053,93.8188354 C42.716076,95.044212 42.784504,96.1221456 42.8241783,97.0424882 C42.8476948,97.5880097 42.8564471,97.955714 42.8574325,98.1354539 C42.861974,98.9638686 43.5372184,99.6317497 44.365633,99.6272082 C45.1940477,99.6226667 45.8619289,98.9474223 45.8573874,98.1190077 Z" id="Path-11" fill="#E20714"></path>
                        <path d="M17.0975093,3.18090487 L18.1229322,3.72391858 C23.9840539,6.82768148 32.2523196,13.8469768 34.2450446,17.2984777 C38.3130571,24.3444821 34.6619498,33.3225376 26.3378822,38.1284403 C18.0503922,42.9132249 8.62109404,41.5168504 4.54021866,34.4485669 C1.87933755,29.8397856 0.0972982821,21.974832 1.03032142,14.6539915 C1.8784652,7.99914551 3.68765681,1.47785149 4.9027526,0.776315613 C5.36474712,0.509582951 5.79620521,0.523432155 6.18837701,0.656850395 C6.34480487,0.710067711 6.47261655,0.776896051 6.60007714,0.858640323 C6.73484937,0.945073774 6.86640917,1.04770328 7.02789037,1.18531803 C7.14191475,1.28248995 7.27029932,1.39678392 7.44923237,1.55932081 C7.53144911,1.63400379 7.86926786,1.9426615 7.95102239,2.01706997 C9.0135022,2.98408054 9.85842713,3.69722141 10.8576935,4.42663156 C11.9436246,5.21930222 13.0359771,5.88769551 14.140817,6.41254985 L17.0975093,3.18090487 Z M14.9319733,9.9921108 L13.9698777,9.60949342 C12.287857,8.94056791 10.6715783,8.00499159 9.08894496,6.84975526 C8.08965102,6.12032501 7.24145028,5.41513127 6.24638317,4.52043807 C6.08797216,5.00484355 5.92091922,5.55951325 5.75334007,6.1635581 C5.04270156,8.72507931 4.42004315,11.7864937 4.00624996,15.0332663 C3.15965267,21.675978 4.79363808,28.8875022 7.13829487,32.9485669 C10.304526,38.4326401 17.870372,39.553058 24.8378822,35.5303641 C31.8497417,31.4820651 34.7922944,24.2463421 31.6469684,18.7984777 C30.0764647,16.0782856 23.0534891,10.032028 17.7277507,6.93634485 L14.9319733,9.9921108 Z" id="Oval-6" fill="#005CA9"></path>
                        <path d="M13.2334147,7.43244837 C12.7444803,8.11330678 12.0462554,9.30284273 11.35531,10.909913 C9.1018301,16.1512834 8.67623492,21.852442 11.2670513,27.4611548 C11.6144514,28.2132218 12.5057455,28.5412691 13.2578124,28.193869 C14.0098794,27.8464689 14.3379267,26.9551748 13.9905266,26.2031078 C11.8036517,21.4688652 12.1655784,16.6205923 14.1113766,12.094859 C14.4616067,11.2802586 14.8360801,10.5490789 15.2084,9.91477331 C15.425863,9.54429105 15.5887234,9.29578659 15.6701944,9.18233532 C16.1534124,8.50943717 15.9996462,7.5722199 15.326748,7.08900196 C14.6538499,6.60578402 13.7166326,6.75955022 13.2334147,7.43244837 Z" id="Path-12" fill="#005CA9"></path>
                        <path d="M45.5672488,44.3083574 C45.9352228,43.56614 45.6318385,42.6661521 44.8896211,42.2981781 C44.1474037,41.9302042 43.2474158,42.2335885 42.8794418,42.9758059 L40.857958,47.0532155 L40.7811738,47.2381947 L39.1832948,51.9548021 C38.917482,52.7394262 39.3380617,53.5909736 40.1226859,53.8567864 C40.9073101,54.1225991 41.7588574,53.7020194 42.0246702,52.9173953 L43.5903456,48.2958463 L45.5672488,44.3083574 Z" id="Path-13" fill="#E20714"></path>
                        <path d="M33.0363782,66.2628866 C32.9405293,66.2395796 32.7738411,66.2016646 32.5464941,66.1540517 C32.1740851,66.0760586 31.7618824,65.9983556 31.3198527,65.9258891 C30.1469735,65.7336067 28.9757587,65.6114805 27.8655575,65.5939705 C27.0208114,65.5806472 26.2390191,65.6290759 25.5290553,65.7509771 C24.7125761,65.891167 24.1643353,66.6667006 24.3045252,67.4831798 C24.4447152,68.299659 25.2202487,68.8478998 26.0367279,68.7077098 C26.5461833,68.6202361 27.1470963,68.5830121 27.8182476,68.5935974 C28.7643966,68.60852 29.79555,68.7160416 30.8345101,68.8863692 C31.2311989,68.9514026 31.6005139,69.0210209 31.9315498,69.0903493 C32.1262697,69.1311292 32.2618314,69.1619641 32.3275435,69.1779429 C33.1325141,69.3736822 33.9437497,68.8798027 34.139489,68.0748321 C34.3352283,67.2698615 33.8413488,66.4586259 33.0363782,66.2628866 Z" id="Path-14" fill="#005CA9"></path>
                        <path d="M78.3073329,42.2277388 C75.4195971,40.1831792 72.3735026,35.9141226 71.5431908,33.005868 C70.5352889,29.4755855 72.5660029,25.7961225 76.0703921,24.7868779 C79.5695803,23.7791312 83.2226898,25.8129035 84.2291143,29.3380113 C85.0543418,32.2284577 84.7335237,37.4340831 83.3792666,40.713501 L86.1521359,41.8585756 C87.8444145,37.7606178 88.0687904,31.859201 87.113848,28.5144147 C85.6525031,23.3959 80.3364689,20.4363383 75.2401534,21.9040488 C70.1438379,23.3717593 67.1971121,28.7109498 68.658457,33.8294646 C69.6186272,37.1925618 72.9536378,42.1130516 76.5738003,44.6761801 L78.3073329,42.2277388 Z" id="Oval-5-Copy" fill="#005CA9"></path>
                        <path d="M87.7625319,42.1402555 C88.9849186,38.8061335 92.3057913,34.7437162 94.8874471,33.1849682 C98.0111056,31.2989708 102.058609,32.3097526 103.9338,35.4457723 C105.814135,38.5903951 104.796727,42.6775525 101.664477,44.5687371 C99.1021395,46.1158211 94.0191634,47.1536359 90.5221536,46.6919991 L90.1295328,49.6661963 C94.5087599,50.2442937 100.24393,48.9308493 103.215093,47.136925 C107.761854,44.391689 109.236408,38.4680751 106.508601,33.9061631 C103.780794,29.3442511 97.8835918,27.8715443 93.3368308,30.6167803 C90.3494018,32.4205254 86.4769172,36.9315723 84.9458689,41.1075844 L87.7625319,42.1402555 Z" id="Oval-5-Copy-2" fill="#005CA9"></path>
                        <path d="M82.3223482,53.8319675 C85.4344597,53.8319675 87.9626226,51.2927922 87.9626226,48.1540566 C87.9626226,45.015321 85.4344597,42.4761457 82.3223482,42.4761457 C79.2102366,42.4761457 76.6820738,45.015321 76.6820738,48.1540566 C76.6820738,51.2927922 79.2102366,53.8319675 82.3223482,53.8319675 Z M82.3223482,56.8319675 C77.5504564,56.8319675 73.6820738,52.9467345 73.6820738,48.1540566 C73.6820738,43.3613787 77.5504564,39.4761457 82.3223482,39.4761457 C87.09424,39.4761457 90.9626226,43.3613787 90.9626226,48.1540566 C90.9626226,52.9467345 87.09424,56.8319675 82.3223482,56.8319675 Z" id="Oval-3" fill="#E20714"></path>
                    </g>
                </g>
            </g>
        </g>
    </g>
</svg>