<?xml version="1.0" encoding="UTF-8"?>
<svg width="84px" height="79px" viewBox="0 0 84 79" version="1.1" xmlns="http://www.w3.org/2000/svg" xmlns:xlink="http://www.w3.org/1999/xlink">
    <!-- Generator: Sketch 43.1 (39012) - http://www.bohemiancoding.com/sketch -->
    <title>Group 36</title>
    <desc>Created with Sketch.</desc>
    <defs></defs>
    <g id="Page-1" stroke="none" stroke-width="1" fill="none" fill-rule="evenodd">
        <g id="Landningssida-Länsförsäkringar" transform="translate(-859.000000, -187.000000)">
            <g id="Group-36" transform="translate(859.000000, 187.000000)">
                <path d="M42.1484375,48.390625 C44.5234494,46.2630102 46.2799422,44.6549534 47.4179688,43.5664062 C48.5559953,42.4778591 49.7929621,41.1914137 51.1289062,39.7070312 C52.4648504,38.2226488 53.3925755,36.911464 53.9121094,35.7734375 C54.4316432,34.635411 54.6914062,33.5221409 54.6914062,32.4335938 C54.6914062,30.8502525 54.1595105,29.5390677 53.0957031,28.5 C52.0318957,27.4609323 50.7083413,26.9414062 49.125,26.9414062 C47.8880146,26.9414062 46.7376355,27.287757 45.6738281,27.9804688 C44.6100207,28.6731805 43.8802103,29.5637966 43.484375,30.6523438 L40.515625,30.6523438 C40.1197897,29.5637966 39.3899793,28.6731805 38.3261719,27.9804688 C37.2623645,27.287757 36.1119854,26.9414062 34.875,26.9414062 C33.2916587,26.9414062 31.9681043,27.4609323 30.9042969,28.5 C29.8404895,29.5390677 29.3085938,30.8502525 29.3085938,32.4335938 C29.3085938,33.5221409 29.5683568,34.635411 30.0878906,35.7734375 C30.6074245,36.911464 31.5351496,38.2226488 32.8710938,39.7070312 C34.2070379,41.1914137 35.4440047,42.4778591 36.5820312,43.5664062 C37.7200578,44.6549534 39.4765506,46.2630102 41.8515625,48.390625 L42,48.5390625 L42.1484375,48.390625 Z M49.125,23.75 C51.5989707,23.75 53.6647053,24.5911374 55.3222656,26.2734375 C56.979826,27.9557376 57.8085938,30.0091025 57.8085938,32.4335938 C57.8085938,33.8684968 57.5364611,35.2662692 56.9921875,36.6269531 C56.4479139,37.987637 55.4459708,39.5091062 53.9863281,41.1914062 C52.5266854,42.8737063 51.2031309,44.2838485 50.015625,45.421875 C48.8281191,46.5599015 46.9231902,48.3163944 44.3007812,50.6914062 L42,52.7695312 L39.6992188,50.765625 C36.2851392,47.6979013 33.8235753,45.3971431 32.3144531,43.8632812 C30.805331,42.3294194 29.4075585,40.5234479 28.1210938,38.4453125 C26.834629,36.3671771 26.1914062,34.3632909 26.1914062,32.4335938 C26.1914062,30.0091025 27.020174,27.9557376 28.6777344,26.2734375 C30.3352947,24.5911374 32.4010293,23.75 34.875,23.75 C37.744806,23.75 40.1197823,24.8632701 42,27.0898438 C43.8802177,24.8632701 46.255194,23.75 49.125,23.75 Z" id="" fill="#E20714"></path>
                <path d="M44.8710306,68.0166302 C43.3276184,66.2940435 42.0666217,64.8905086 41.136619,63.861015 C40.6070492,63.2747923 40.1913839,62.8171498 39.8989321,62.498612 C39.7414721,62.327107 39.6190728,62.1952026 39.5310557,62.1023186 C39.4692251,61.9386152 39.4692251,61.9386152 38.3071289,61.5 L28.004277,61.5 C14.4697644,61.5 3.5,50.5329598 3.5,37 C3.5,23.4657202 14.4636556,12.5 28.001584,12.5 L52.998416,12.5 C66.5314064,12.5 77.5,23.4670054 77.5,37 C77.5,50.5336081 66.5370676,61.5 53.0031522,61.5 L53.0031522,64.5 C68.1941338,64.5 80.5,52.1902505 80.5,37 C80.5,21.8100539 68.1881634,9.5 52.998416,9.5 L28.001584,9.5 C12.8066749,9.5 0.5,21.8089924 0.5,37 C0.5,52.1899808 12.8130769,64.5 28.004277,64.5 L30.655747,64.5 L33.1559914,64.5 C36.2608513,64.5 36.8489327,64.5 37.6637807,64.5 C37.9749327,64.8388913 38.3858407,65.291296 38.910459,65.8720375 C39.8371639,66.8978805 41.0957737,68.2987587 42.6032604,69.9812487 C43.8155396,71.3343061 45.0766618,72.7441903 46.3364185,74.1540913 C46.7773451,74.6475697 47.1866008,75.1057957 47.5537393,75.5170136 C47.9312881,75.9399467 47.9312881,75.9399467 48.0150519,76.0338225 L50.6342773,78.9692415 L50.6342773,61.5134277 L47.6342773,61.5134277 L47.6342773,71.1043556 C46.6904576,70.0486482 45.7575693,69.0061203 44.8710306,68.0166302 Z" id="Rectangle-17" fill="#005CA9" fill-rule="nonzero"></path>
                <polygon id="Path-31" fill="#005CA9" fill-rule="nonzero" points="79.3657182 19.0052156 83.1767534 15.9461335 81.2988325 13.6066008 77.4877974 16.6656829"></polygon>
                <polygon id="Path-31-Copy" fill="#005CA9" fill-rule="nonzero" points="72.177692 11.0742832 75.3988834 6.9190098 73.0278744 5.0809902 69.806683 9.23626364"></polygon>
                <polygon id="Path-31-Copy-2" fill="#005CA9" fill-rule="nonzero" points="62.6306658 6.70593807 63.9709978 1.36511776 61.0612287 0.63488224 59.7208967 5.97570255"></polygon>
            </g>
        </g>
    </g>
</svg>