<?xml version="1.0" encoding="UTF-8"?>
<svg width="201px" height="41px" viewBox="0 0 201 41" version="1.1" xmlns="http://www.w3.org/2000/svg" xmlns:xlink="http://www.w3.org/1999/xlink">
    <!-- Generator: Sketch 42 (36781) - http://www.bohemiancoding.com/sketch -->
    <title>Page 1 Copy</title>
    <desc>Created with Sketch.</desc>
    <defs>
        <polygon id="path-1" points="3.10776471 2.22044605e-16 3.10776471 3.13294118 2.22044605e-16 3.13294118 2.22044605e-16 1.31881434e-13 3.10776471 1.31881434e-13"></polygon>
    </defs>
    <g id="Page-1" stroke="none" stroke-width="1" fill="none" fill-rule="evenodd">
        <g id="Page-1-Copy">
            <path d="M107.718824,33.2858824 C107.718824,34.2941176 107.784706,34.3835294 109.364706,34.7988235 L109.364706,35.1952941 L103,35.1952941 L103,34.7988235 C104.602353,34.3835294 104.645882,34.3176471 104.645882,33.2858824 L104.645882,25.9094118 C104.645882,24.8788235 104.602353,24.8129412 103,24.3952941 L103,24 L107.718824,24 L107.718824,33.2858824 Z" id="Fill-1" fill="#FFFFFF"></path>
            <path d="M109.994118,24 L109.114118,24 C108.077647,24 108,24.0776471 108,25.1141176 L108,26.02 C108,27.0564706 108.077647,27.1329412 109.114118,27.1329412 L109.994118,27.1329412 C111.030588,27.1329412 111.108235,27.0564706 111.108235,26.02 L111.108235,25.1141176 C111.108235,24.0776471 111.030588,24 109.994118,24" id="Fill-3" fill="#FFFFFF"></path>
            <path d="M147.510588,33.2858824 L147.510588,24 L142.791765,24 L142.791765,24.3952941 C144.394118,24.8129412 144.437647,24.8788235 144.437647,25.9094118 L144.437647,33.2858824 C144.437647,34.0435294 144.411765,34.28 143.763529,34.5176471 C143.435294,34.6317647 143.054118,34.6858824 142.9,34.6611765 C142.352941,34.5682353 142.114118,34.4211765 141.757647,33.9458824 L137.677647,27.9976471 C137.677647,27.9976471 139.541176,25.8023529 140.2,25.1858824 C140.638824,24.7705882 140.989412,24.5070588 141.998824,24.3964706 L141.998824,24.0011765 L137.916471,24.0011765 L137.916471,24.3964706 C138.794118,24.4188235 139.189412,24.5070588 139.189412,24.7470588 C139.189412,24.8588235 139.057647,25.0329412 138.816471,25.2529412 L135,29.2470588 L138.18,34.0105882 C138.268235,34.1647059 138.334118,34.2752941 138.334118,34.3623529 C138.334118,34.6047059 137.916471,34.6058824 137.061176,34.8023529 L137.061176,35.1964706 L143.469412,35.1964706 L143.470588,35.1952941 L149.156471,35.1952941 L149.156471,34.7988235 C147.576471,34.3835294 147.510588,34.2941176 147.510588,33.2858824" id="Fill-5" fill="#FFFFFF"></path>
            <path d="M150.994118,24 L150.114118,24 C149.077647,24 149,24.0776471 149,25.1141176 L149,26.02 C149,27.0564706 149.077647,27.1329412 150.114118,27.1329412 L150.994118,27.1329412 C152.029412,27.1329412 152.108235,27.0564706 152.108235,26.02 L152.108235,25.1141176 C152.108235,24.0776471 152.029412,24 150.994118,24" id="Fill-7" fill="#FFFFFF"></path>
            <path d="M48.1341176,34.0482353 L46.8505882,34.0482353 L46.8505882,21.9105882 C46.8505882,20.8788235 46.8941176,20.8129412 48.4964706,20.3952941 L48.4964706,20 L42,20 L42,20.3952941 C43.58,20.8129412 43.6458824,20.9 43.6458824,21.9105882 L43.6458824,33.2364706 C43.6458824,34.2682353 43.6023529,34.3341176 42,34.7505882 L42,35.1458824 L53.2047059,35.1458824 L53.4682353,30.3164706 L53.0729412,30.3164706 C51.5588235,34.1364706 50.3070588,34.0482353 48.1341176,34.0482353" id="Fill-9" fill="#FFFFFF"></path>
            <path d="M75.3870588,33.5035294 L75.3870588,26.8752941 C75.3870588,24.5258824 73.6964706,24 72.2705882,24 C70.9752941,24 69.1094118,24.5917647 68.1211765,25.4705882 L68.1211765,24.2188235 L63.8411765,24.2188235 L63.8411765,24.6141176 C65.4435294,25.0305882 65.4882353,25.0964706 65.4882353,26.1282353 L65.4882353,33.5035294 C65.4882353,34.1647059 65.4682353,34.4282353 65.0352941,34.6423529 C64.7388235,34.7835294 64.5082353,34.7952941 64.3870588,34.8058824 C63.3341176,34.8870588 63.1529412,34.3623529 63.1529412,33.4376471 L63.1529412,27.3576471 C63.1529412,25.1623529 61.9011765,24 59.7282353,24 C56.8529412,24 54.2847059,24.8341176 54.2847059,26.9847059 C54.2847059,27.9282353 54.7023529,28.4552941 55.8,28.4552941 C56.8964706,28.4552941 57.3352941,27.7964706 57.3352941,26.9188235 C57.3352941,26.0623529 57.0282353,25.8211765 55.9094118,25.6458824 L55.9094118,25.58 C55.9094118,25.58 57.0729412,25.5141176 57.8847059,25.5141176 C59.9258824,25.5141176 60.08,25.6011765 60.08,27.7964706 L60.08,29.4870588 L57.4235294,29.4870588 C54.9211765,29.4870588 54,30.2988235 54,32.6035294 C54,34.9741176 54.8552941,35.6341176 56.8964706,35.6341176 C58.2141176,35.6341176 59.5305882,35.1941176 60.2329412,34.7552941 C60.54,35.4129412 61.2870588,35.6341176 62.3623529,35.6341176 C62.94,35.6341176 63.5776471,35.5729412 64.3105882,35.4788235 C64.4694118,35.4588235 64.6976471,35.4129412 65.1058824,35.4129412 L70.2070588,35.4129412 L70.2070588,35.0176471 C68.6270588,34.6023529 68.5611765,34.5129412 68.5611765,33.5035294 L68.5611765,25.7988235 C69.3952941,25.7341176 70.2070588,25.6670588 71.0188235,25.6670588 C72.1823529,25.6670588 72.3141176,25.9305882 72.3141176,27.0282353 L72.3141176,33.5035294 C72.3141176,34.5352941 72.2705882,34.6023529 70.6682353,35.0176471 L70.6682353,35.4129412 L77.0329412,35.4129412 L77.0329412,35.0176471 C75.4529412,34.6023529 75.3870588,34.5129412 75.3870588,33.5035294 L75.3870588,33.5035294 Z M60.08,33.9423529 L60.08,34.1176471 C59.6623529,34.2494118 59.18,34.3152941 58.74,34.3152941 C57.5776471,34.3152941 57.2047059,34.0517647 57.2047059,32.56 C57.2047059,30.54 57.3141176,30.3882353 60.08,30.3647059 L60.08,33.9423529 Z" id="Fill-11" fill="#FFFFFF"></path>
            <path d="M56.9435294,22.6564706 L57.6894118,22.6564706 C58.5682353,22.6564706 58.6341176,22.5894118 58.6341176,21.7117647 L58.6341176,20.9447059 C58.6341176,20.0670588 58.5682353,20 57.6894118,20 L56.9435294,20 C56.0658824,20 56,20.0670588 56,20.9447059 L56,21.7117647 C56,22.5894118 56.0658824,22.6564706 56.9435294,22.6564706" id="Fill-13" fill="#FFFFFF"></path>
            <path d="M60.9435294,22.6564706 L61.6894118,22.6564706 C62.5682353,22.6564706 62.6341176,22.5894118 62.6341176,21.7117647 L62.6341176,20.9447059 C62.6341176,20.0670588 62.5682353,20 61.6894118,20 L60.9435294,20 C60.0658824,20 60,20.0670588 60,20.9447059 L60,21.7117647 C60,22.5894118 60.0658824,22.6564706 60.9435294,22.6564706" id="Fill-15" fill="#FFFFFF"></path>
            <path d="M80.1952941,26.3482353 C80.1952941,25.4258824 80.9635294,25.0317647 81.8858824,25.0317647 C83.18,25.0317647 84.0141176,25.4917647 84.8929412,27.4235294 L85.2870588,27.4235294 L85.1341176,24.2647059 C85.1341176,24.2647059 83.4870588,24 82.3247059,24 C79.3611765,24 78,25.0976471 78,27.4458824 C78,32.0552941 83.6858824,30.6941176 83.6858824,33.1741176 C83.6858824,34.0741176 82.9388235,34.6011765 81.9729412,34.6011765 C80.5905882,34.6011765 79.4047059,34.0305882 78.3952941,31.8352941 L78,31.8352941 L78.0658824,35.1058824 C78.6588235,35.2811765 80.4588235,35.6329412 81.82,35.6329412 C84.5188235,35.6329412 85.9682353,34.3152941 85.9682353,32.0764706 C85.9682353,27.6647059 80.1952941,28.7847059 80.1952941,26.3482353" id="Fill-17" fill="#FFFFFF"></path>
            <path d="M89.7188235,33.1129412 L89.7188235,24.8823529 L92.1776471,24.3223529 L92.1776471,23.8282353 L89.7188235,23.8282353 L89.7188235,21.8305882 C89.7188235,20.5376471 90.0258824,20.4705882 90.9917647,20.4705882 L92.5058824,20.4705882 L92.5058824,20.2070588 C91.5611765,19.3282353 90.3988235,19 89.3670588,19 C87.8305882,19 86.6458824,19.8552941 86.6458824,21.8964706 L86.6458824,23.8282353 L86.6458824,24.7517647 L86.6458824,33.1129412 C86.6458824,34.1447059 86.6023529,34.2117647 85,34.6270588 L85,35.0223529 L91.3647059,35.0223529 L91.3647059,34.6270588 C89.7847059,34.2117647 89.7188235,34.1223529 89.7188235,33.1129412" id="Fill-19" fill="#FFFFFF"></path>
            <path d="M97.5529412,24 C93.6023529,24 92,24.7670588 92,29.9258824 C92,34.9529412 93.6235294,35.6329412 97.5529412,35.6329412 C101.503529,35.6329412 102.798824,35.0611765 102.798824,29.9258824 C102.798824,24.7905882 101.635294,24 97.5529412,24 M97.5529412,34.6894118 C95.5117647,34.6894118 95.2917647,34.5141176 95.2917647,29.9258824 C95.2917647,25.4035294 95.4023529,24.9435294 97.5529412,24.9435294 C99.4188235,24.9435294 99.5058824,25.4470588 99.5058824,29.9258824 C99.5058824,34.5141176 99.3094118,34.6894118 97.5529412,34.6894118" id="Fill-21" fill="#FFFFFF"></path>
            <path d="M98.9435294,22.6564706 L99.6894118,22.6564706 C100.568235,22.6564706 100.634118,22.5894118 100.634118,21.7117647 L100.634118,20.9447059 C100.634118,20.0670588 100.568235,20 99.6894118,20 L98.9435294,20 C98.0658824,20 98,20.0670588 98,20.9447059 L98,21.7117647 C98,22.5894118 98.0658824,22.6564706 98.9435294,22.6564706" id="Fill-23" fill="#FFFFFF"></path>
            <path d="M94.9435294,22.6564706 L95.6894118,22.6564706 C96.5682353,22.6564706 96.6341176,22.5894118 96.6341176,21.7117647 L96.6341176,20.9447059 C96.6341176,20.0670588 96.5682353,20 95.6894118,20 L94.9435294,20 C94.0658824,20 94,20.0670588 94,20.9447059 L94,21.7117647 C94,22.5894118 94.0658824,22.6564706 94.9435294,22.6564706" id="Fill-25" fill="#FFFFFF"></path>
            <path d="M114.195294,26.3482353 C114.195294,25.4258824 114.963529,25.0317647 115.885882,25.0317647 C117.18,25.0317647 118.014118,25.4917647 118.892941,27.4235294 L119.287059,27.4235294 L119.134118,24.2647059 C119.134118,24.2647059 117.488235,24 116.324706,24 C113.361176,24 112,25.0976471 112,27.4458824 C112,32.0552941 117.684706,30.6941176 117.684706,33.1741176 C117.684706,34.0741176 116.938824,34.6011765 115.972941,34.6011765 C114.590588,34.6011765 113.404706,34.0305882 112.395294,31.8352941 L112,31.8352941 L112.065882,35.1058824 C112.658824,35.2811765 114.458824,35.6329412 115.818824,35.6329412 C118.518824,35.6329412 119.968235,34.3152941 119.968235,32.0764706 C119.968235,27.6647059 114.195294,28.7847059 114.195294,26.3482353" id="Fill-27" fill="#FFFFFF"></path>
            <path d="M135.538824,32.8941176 L135.538824,19 L130.82,19 L130.82,19.0011765 L130.818824,19.0011765 L130.818824,19.3964706 C132.421176,19.8129412 132.464706,19.8788235 132.464706,20.9105882 L132.464706,32.8952941 C132.464706,33.3458824 132.456471,33.6129412 132.312941,33.8047059 C132.256471,33.88 132.177647,33.9447059 132.070588,34.0023529 L132.070588,34.0011765 C132.043529,34.0176471 132.016471,34.0305882 131.988235,34.0458824 C131.936471,34.0694118 131.878824,34.0941176 131.815294,34.1176471 C131.509412,34.2164706 131.201176,34.1929412 131.041176,34.1823529 C130.322353,34.14 130.152941,33.6305882 130.152941,32.8282353 L130.152941,26.7482353 C130.152941,24.5529412 128.902353,23.3905882 126.729412,23.3905882 C123.854118,23.3905882 121.285882,24.2247059 121.285882,26.3752941 C121.285882,27.3188235 121.702353,27.8458824 122.8,27.8458824 C123.897647,27.8458824 124.336471,27.1870588 124.336471,26.3094118 C124.336471,25.4529412 124.029412,25.2117647 122.910588,25.0364706 L122.910588,24.9705882 C122.910588,24.9705882 124.072941,24.9047059 124.885882,24.9047059 C126.927059,24.9047059 127.08,24.9917647 127.08,27.1870588 L127.08,28.8776471 L124.424706,28.8776471 C121.922353,28.8776471 121,29.6894118 121,31.9941176 C121,34.3647059 121.856471,35.0247059 123.897647,35.0247059 C125.214118,35.0247059 126.531765,34.5847059 127.234118,34.1458824 C127.541176,34.8035294 128.287059,35.0247059 129.363529,35.0247059 C129.795294,35.0247059 130.261176,34.9905882 130.775294,34.9341176 C131.092941,34.8988235 131.428235,34.8070588 131.943529,34.8047059 L137.184706,34.8047059 L137.184706,34.8035294 L137.184706,34.4082353 C135.604706,33.9929412 135.538824,33.9035294 135.538824,32.8941176 L135.538824,32.8941176 Z M127.08,33.3329412 L127.08,33.5082353 C126.663529,33.64 126.18,33.7058824 125.741176,33.7058824 C124.577647,33.7058824 124.204706,33.4423529 124.204706,31.9505882 C124.204706,29.9305882 124.315294,29.7788235 127.08,29.7552941 L127.08,33.3329412 Z" id="Fill-29" fill="#FFFFFF"></path>
            <path d="M154.943529,22.6564706 L155.689412,22.6564706 C156.568235,22.6564706 156.634118,22.5894118 156.634118,21.7129412 L156.634118,20.9447059 C156.634118,20.0658824 156.568235,20 155.689412,20 L154.943529,20 C154.065882,20 154,20.0658824 154,20.9447059 L154,21.7129412 C154,22.5894118 154.065882,22.6564706 154.943529,22.6564706" id="Fill-31" fill="#FFFFFF"></path>
            <path d="M169.185882,33.5035294 L169.185882,26.8752941 C169.185882,24.5258824 167.495294,24 166.069412,24 C164.774118,24 162.908235,24.5917647 161.92,25.4705882 L161.92,24.2188235 L157.64,24.2188235 L157.64,24.6141176 C159.242353,25.0305882 159.287059,25.0964706 159.287059,26.1282353 L159.287059,33.5035294 C159.287059,34.3270588 159.256471,34.5352941 158.430588,34.7988235 C158.187059,34.88 157.835294,34.8752941 157.64,34.8141176 C156.762353,34.5376471 156.718824,34.3282353 156.718824,33.5035294 L156.718824,24.2188235 L152,24.2188235 L152,24.6141176 C153.602353,25.0305882 153.645882,25.0964706 153.645882,26.1282353 L153.645882,33.5035294 C153.645882,34.5352941 153.602353,34.6023529 152,35.0176471 L152,35.4129412 L157.64,35.4129412 L158.364706,35.4129412 L164.005882,35.4129412 L164.005882,35.0176471 C162.424706,34.6023529 162.36,34.5129412 162.36,33.5035294 L162.36,25.7988235 C163.192941,25.7341176 164.005882,25.6670588 164.817647,25.6670588 C165.981176,25.6670588 166.112941,25.9305882 166.112941,27.0282353 L166.112941,33.5035294 C166.112941,34.5352941 166.069412,34.6023529 164.467059,35.0176471 L164.467059,35.4129412 L170.501176,35.4129412 L170.501176,35.0176471 C169.225882,34.6529412 169.185882,34.5129412 169.185882,33.5035294" id="Fill-33" fill="#FFFFFF"></path>
            <g id="Group-37" transform="translate(170.588235, 24.243059)" fill="#FFFFFF">
                <path d="M6.97882353,8.82352941 L3.18117647,8.82352941 C2.43529412,8.82352941 2.15058824,8.51647059 2.15058824,8.09882353 C2.15058824,7.76941176 2.21294118,7.38588235 2.30588235,7.01529412 C3.00823529,7.19176471 3.77529412,7.24352941 4.91647059,7.24352941 C8.53764706,7.24352941 9.78823529,6.60705882 9.78823529,3.81882353 C9.78823529,2.54588235 9.46,1.64588235 8.80117647,1.05294118 L10.9964706,0.612941176 L10.9964706,0.218823529 C9.04235294,0.109411765 6.51882353,0 4.91647059,0 C2.32588235,0 0,0.548235294 0,3.81882353 C0,5.31176471 0.394117647,6.23294118 1.47058824,6.73882353 C0.372941176,7.88 0.130588235,8.67882353 0.174117647,9.63411765 C0.203529412,10.2705882 0.537647059,10.9070588 1.28352941,11.3694118 C0.624705882,12.2482353 0.174117647,13.4105882 0.174117647,14.1352941 C0.174117647,15.3858824 0.832941176,15.8694118 3.22588235,15.8694118 L6.67176471,15.8694118 C9.28352941,15.8694118 10.2282353,15.2552941 10.2282353,12.0494118 C10.2282353,9.52588235 9.50352941,8.82352941 6.97882353,8.82352941 M4.89411765,1.00941176 C6.14470588,1.00941176 6.49647059,1.27294118 6.49647059,3.75176471 C6.49647059,6.05764706 6.34235294,6.23294118 4.89411765,6.23294118 C3.59882353,6.23294118 3.29176471,6.05764706 3.29176471,3.75176471 C3.29176471,1.11882353 3.66470588,1.00941176 4.89411765,1.00941176 M5.92470588,14.86 L4.08117647,14.86 C2.41294118,14.86 1.90823529,14.7282353 1.90823529,13.4764706 C1.90823529,12.8623529 1.93058824,12.2258824 1.95294118,11.6105882 C2.19411765,11.6552941 2.45764706,11.6764706 2.74235294,11.6764706 L5.83764706,11.6764706 C7.61529412,11.6764706 8.03294118,11.8741176 8.03294118,13.3235294 C8.03294118,14.6623529 7.72470588,14.86 5.92470588,14.86" id="Fill-35"></path>
            </g>
            <path d="M126.943529,22.6564706 L127.689412,22.6564706 C128.568235,22.6564706 128.634118,22.5894118 128.634118,21.7117647 L128.634118,20.9447059 C128.634118,20.0670588 128.568235,20 127.689412,20 L126.943529,20 C126.065882,20 126,20.0670588 126,20.9447059 L126,21.7117647 C126,22.5894118 126.065882,22.6564706 126.943529,22.6564706" id="Fill-38" fill="#FFFFFF"></path>
            <path d="M122.943529,22.6564706 L123.689412,22.6564706 C124.568235,22.6564706 124.634118,22.5894118 124.634118,21.7117647 L124.634118,20.9447059 C124.634118,20.0670588 124.568235,20 123.689412,20 L122.943529,20 C122.065882,20 122,20.0670588 122,20.9447059 L122,21.7117647 C122,22.5894118 122.065882,22.6564706 122.943529,22.6564706" id="Fill-40" fill="#FFFFFF"></path>
            <path d="M196.569412,33.5035294 L196.569412,24.2176471 L191.850588,24.2176471 L191.850588,24.6129412 C193.452941,25.0305882 193.496471,25.0964706 193.496471,26.1270588 L193.496471,33.5035294 C193.496471,34.2364706 193.447059,34.4858824 192.856471,34.7047059 C192.637647,34.7870588 192.150588,34.8870588 191.698824,34.7070588 C191.247059,34.4682353 191.152941,34.1058824 191.152941,33.4376471 L191.152941,27.3564706 C191.152941,25.1623529 189.901176,24 187.728235,24 C184.852941,24 182.284706,24.8341176 182.284706,26.9847059 C182.284706,27.9294118 182.702353,28.4552941 183.8,28.4552941 C184.896471,28.4552941 185.336471,27.7964706 185.336471,26.9176471 C185.336471,26.0635294 185.028235,25.8223529 183.909412,25.6447059 L183.909412,25.58 C183.909412,25.58 185.072941,25.5141176 185.884706,25.5141176 C187.925882,25.5141176 188.08,25.6011765 188.08,27.7964706 L188.08,29.4870588 L185.423529,29.4870588 C182.921176,29.4870588 182,30.2988235 182,32.6035294 C182,34.9752941 182.855294,35.6329412 184.896471,35.6329412 C186.214118,35.6329412 187.530588,35.1941176 188.232941,34.7541176 C188.541176,35.4141176 189.287059,35.6329412 190.362353,35.6329412 C191.064706,35.6329412 192.2,35.4141176 192.969412,35.4141176 L192.968235,35.4129412 L198.215294,35.4129412 L198.215294,35.0164706 C196.635294,34.6011765 196.569412,34.5117647 196.569412,33.5035294 L196.569412,33.5035294 Z M188.08,33.9435294 L188.08,34.1176471 C187.662353,34.2505882 187.18,34.3152941 186.741176,34.3152941 C185.577647,34.3152941 185.204706,34.0529412 185.204706,32.5588235 C185.204706,30.54 185.314118,30.3870588 188.08,30.3658824 L188.08,33.9435294 Z" id="Fill-42" fill="#FFFFFF"></path>
            <g id="Group-46" transform="translate(197.470588, 24.243059)">
                <mask id="mask-2" fill="white">
                    <use xlink:href="#path-1"></use>
                </mask>
                <g id="Clip-45"></g>
                <path d="M1.99411765,2.22044605e-16 L1.11411765,2.22044605e-16 C0.0776470588,2.22044605e-16 0,0.0776470588 0,1.11411765 L0,2.02 C0,3.05647059 0.0776470588,3.13294118 1.11411765,3.13294118 L1.99411765,3.13294118 C3.03058824,3.13294118 3.10823529,3.05647059 3.10823529,2.02 L3.10823529,1.11411765 C3.10823529,0.0776470588 3.03058824,2.22044605e-16 1.99411765,2.22044605e-16" id="Fill-44" fill="#FFFFFF" mask="url(#mask-2)"></path>
            </g>
            <polygon id="Fill-47" fill="#FFFFFF" points="13 0 13 9.80823529 25.8435294 9.80823529 25.8435294 35.2611765 35.6517647 35.2611765 35.6517647 0"></polygon>
            <polygon id="Fill-49" fill="#FFFFFF" points="0 0 0 35.2611765 22.6517647 35.2611765 22.6517647 25.4541176 9.80823529 25.4541176 9.80823529 0"></polygon>
            <polygon id="Fill-51" fill="#FFFFFF" points="13 23.0411765 23.0411765 23.0411765 23.0411765 13 13 13"></polygon>
        </g>
    </g>
</svg>