<?xml version="1.0" encoding="UTF-8"?>
<svg width="201px" height="40px" viewBox="0 0 201 40" version="1.1" xmlns="http://www.w3.org/2000/svg" xmlns:xlink="http://www.w3.org/1999/xlink">
    <!-- Generator: Sketch 42 (36781) - http://www.bohemiancoding.com/sketch -->
    <title>Page 1</title>
    <desc>Created with Sketch.</desc>
    <defs>
        <polygon id="path-1" points="3.62235294 0.819529412 3.62235294 3.95247059 0.514588235 3.95247059 0.514588235 0.819529412 3.62235294 0.819529412"></polygon>
    </defs>
    <g id="Page-1" stroke="none" stroke-width="1" fill="none" fill-rule="evenodd">
        <g id="Landningssida-Länsförsäkringar" transform="translate(-144.000000, -54.000000)">
            <g id="Page-1" transform="translate(144.000000, 54.000000)">
                <path d="M107.269765,33.348 C107.269765,34.3562353 107.335647,34.4456471 108.915647,34.8609412 L108.915647,35.2574118 L102.550941,35.2574118 L102.550941,34.8609412 C104.153294,34.4456471 104.196824,34.3797647 104.196824,33.348 L104.196824,25.9715294 C104.196824,24.9409412 104.153294,24.8750588 102.550941,24.4574118 L102.550941,24.0621176 L107.269765,24.0621176 L107.269765,33.348 Z" id="Fill-1" fill="#005CA9"></path>
                <path d="M110.159176,24.0625882 L109.279176,24.0625882 C108.242706,24.0625882 108.165059,24.1402353 108.165059,25.1767059 L108.165059,26.0825882 C108.165059,27.1190588 108.242706,27.1955294 109.279176,27.1955294 L110.159176,27.1955294 C111.195647,27.1955294 111.273294,27.1190588 111.273294,26.0825882 L111.273294,25.1767059 C111.273294,24.1402353 111.195647,24.0625882 110.159176,24.0625882" id="Fill-3" fill="#005CA9"></path>
                <path d="M147.818941,33.348 L147.818941,24.0621176 L143.100118,24.0621176 L143.100118,24.4574118 C144.702471,24.8750588 144.746,24.9409412 144.746,25.9715294 L144.746,33.348 C144.746,34.1056471 144.720118,34.3421176 144.071882,34.5797647 C143.743647,34.6938824 143.362471,34.748 143.208353,34.7232941 C142.661294,34.6303529 142.422471,34.4832941 142.066,34.008 L137.986,28.0597647 C137.986,28.0597647 139.849529,25.8644706 140.508353,25.248 C140.947176,24.8327059 141.297765,24.5691765 142.307176,24.4585882 L142.307176,24.0632941 L138.224824,24.0632941 L138.224824,24.4585882 C139.102471,24.4809412 139.497765,24.5691765 139.497765,24.8091765 C139.497765,24.9209412 139.366,25.0950588 139.124824,25.3150588 L135.308353,29.3091765 L138.488353,34.0727059 C138.576588,34.2268235 138.642471,34.3374118 138.642471,34.4244706 C138.642471,34.6668235 138.224824,34.668 137.369529,34.8644706 L137.369529,35.2585882 L143.777765,35.2585882 L143.778941,35.2574118 L149.464824,35.2574118 L149.464824,34.8609412 C147.884824,34.4456471 147.818941,34.3562353 147.818941,33.348" id="Fill-5" fill="#005CA9"></path>
                <path d="M150.708353,24.0625882 L149.828353,24.0625882 C148.791882,24.0625882 148.714235,24.1402353 148.714235,25.1767059 L148.714235,26.0825882 C148.714235,27.1190588 148.791882,27.1955294 149.828353,27.1955294 L150.708353,27.1955294 C151.743647,27.1955294 151.822471,27.1190588 151.822471,26.0825882 L151.822471,25.1767059 C151.822471,24.1402353 151.743647,24.0625882 150.708353,24.0625882" id="Fill-7" fill="#005CA9"></path>
                <path d="M48.0865882,34.1602353 L46.8030588,34.1602353 L46.8030588,22.0225882 C46.8030588,20.9908235 46.8465882,20.9249412 48.4489412,20.5072941 L48.4489412,20.112 L41.9524706,20.112 L41.9524706,20.5072941 C43.5324706,20.9249412 43.5983529,21.012 43.5983529,22.0225882 L43.5983529,33.3484706 C43.5983529,34.3802353 43.5548235,34.4461176 41.9524706,34.8625882 L41.9524706,35.2578824 L53.1571765,35.2578824 L53.4207059,30.4284706 L53.0254118,30.4284706 C51.5112941,34.2484706 50.2595294,34.1602353 48.0865882,34.1602353" id="Fill-9" fill="#005CA9"></path>
                <path d="M75.5216471,33.348 L75.5216471,26.7197647 C75.5216471,24.3703529 73.8310588,23.8444706 72.4051765,23.8444706 C71.1098824,23.8444706 69.244,24.4362353 68.2557647,25.3150588 L68.2557647,24.0632941 L63.9757647,24.0632941 L63.9757647,24.4585882 C65.5781176,24.8750588 65.6228235,24.9409412 65.6228235,25.9727059 L65.6228235,33.348 C65.6228235,34.0091765 65.6028235,34.2727059 65.1698824,34.4868235 C64.8734118,34.628 64.6428235,34.6397647 64.5216471,34.6503529 C63.4687059,34.7315294 63.2875294,34.2068235 63.2875294,33.2821176 L63.2875294,27.2021176 C63.2875294,25.0068235 62.0357647,23.8444706 59.8628235,23.8444706 C56.9875294,23.8444706 54.4192941,24.6785882 54.4192941,26.8291765 C54.4192941,27.7727059 54.8369412,28.2997647 55.9345882,28.2997647 C57.0310588,28.2997647 57.4698824,27.6409412 57.4698824,26.7632941 C57.4698824,25.9068235 57.1628235,25.6656471 56.044,25.4903529 L56.044,25.4244706 C56.044,25.4244706 57.2075294,25.3585882 58.0192941,25.3585882 C60.0604706,25.3585882 60.2145882,25.4456471 60.2145882,27.6409412 L60.2145882,29.3315294 L57.5581176,29.3315294 C55.0557647,29.3315294 54.1345882,30.1432941 54.1345882,32.448 C54.1345882,34.8185882 54.9898824,35.4785882 57.0310588,35.4785882 C58.3487059,35.4785882 59.6651765,35.0385882 60.3675294,34.5997647 C60.6745882,35.2574118 61.4216471,35.4785882 62.4969412,35.4785882 C63.0745882,35.4785882 63.7122353,35.4174118 64.4451765,35.3232941 C64.604,35.3032941 64.8322353,35.2574118 65.2404706,35.2574118 L70.3416471,35.2574118 L70.3416471,34.8621176 C68.7616471,34.4468235 68.6957647,34.3574118 68.6957647,33.348 L68.6957647,25.6432941 C69.5298824,25.5785882 70.3416471,25.5115294 71.1534118,25.5115294 C72.3169412,25.5115294 72.4487059,25.7750588 72.4487059,26.8727059 L72.4487059,33.348 C72.4487059,34.3797647 72.4051765,34.4468235 70.8028235,34.8621176 L70.8028235,35.2574118 L77.1675294,35.2574118 L77.1675294,34.8621176 C75.5875294,34.4468235 75.5216471,34.3574118 75.5216471,33.348 L75.5216471,33.348 Z M60.2145882,33.7868235 L60.2145882,33.9621176 C59.7969412,34.0938824 59.3145882,34.1597647 58.8745882,34.1597647 C57.7122353,34.1597647 57.3392941,33.8962353 57.3392941,32.4044706 C57.3392941,30.3844706 57.4487059,30.2327059 60.2145882,30.2091765 L60.2145882,33.7868235 Z" id="Fill-11" fill="#005CA9"></path>
                <path d="M56.6367059,22.5495294 L57.3825882,22.5495294 C58.2614118,22.5495294 58.3272941,22.4824706 58.3272941,21.6048235 L58.3272941,20.8377647 C58.3272941,19.9601176 58.2614118,19.8930588 57.3825882,19.8930588 L56.6367059,19.8930588 C55.7590588,19.8930588 55.6931765,19.9601176 55.6931765,20.8377647 L55.6931765,21.6048235 C55.6931765,22.4824706 55.7590588,22.5495294 56.6367059,22.5495294" id="Fill-13" fill="#005CA9"></path>
                <path d="M60.8290588,22.5495294 L61.5749412,22.5495294 C62.4537647,22.5495294 62.5196471,22.4824706 62.5196471,21.6048235 L62.5196471,20.8377647 C62.5196471,19.9601176 62.4537647,19.8930588 61.5749412,19.8930588 L60.8290588,19.8930588 C59.9514118,19.8930588 59.8855294,19.9601176 59.8855294,20.8377647 L59.8855294,21.6048235 C59.8855294,22.4824706 59.9514118,22.5495294 60.8290588,22.5495294" id="Fill-15" fill="#005CA9"></path>
                <path d="M79.5502353,26.1927059 C79.5502353,25.2703529 80.3184706,24.8762353 81.2408235,24.8762353 C82.5349412,24.8762353 83.3690588,25.3362353 84.2478824,27.268 L84.642,27.268 L84.4890588,24.1091765 C84.4890588,24.1091765 82.842,23.8444706 81.6796471,23.8444706 C78.7161176,23.8444706 77.3549412,24.9421176 77.3549412,27.2903529 C77.3549412,31.8997647 83.0408235,30.5385882 83.0408235,33.0185882 C83.0408235,33.9185882 82.2937647,34.4456471 81.3278824,34.4456471 C79.9455294,34.4456471 78.7596471,33.8750588 77.7502353,31.6797647 L77.3549412,31.6797647 L77.4208235,34.9503529 C78.0137647,35.1256471 79.8137647,35.4774118 81.1749412,35.4774118 C83.8737647,35.4774118 85.3231765,34.1597647 85.3231765,31.9209412 C85.3231765,27.5091765 79.5502353,28.6291765 79.5502353,26.1927059" id="Fill-17" fill="#005CA9"></path>
                <path d="M89.8535294,33.348 L89.8535294,25.1174118 L92.3123529,24.5574118 L92.3123529,24.0632941 L89.8535294,24.0632941 L89.8535294,22.0656471 C89.8535294,20.7727059 90.1605882,20.7056471 91.1264706,20.7056471 L92.6405882,20.7056471 L92.6405882,20.4421176 C91.6958824,19.5632941 90.5335294,19.2350588 89.5017647,19.2350588 C87.9652941,19.2350588 86.7805882,20.0903529 86.7805882,22.1315294 L86.7805882,24.0632941 L86.7805882,24.9868235 L86.7805882,33.348 C86.7805882,34.3797647 86.7370588,34.4468235 85.1347059,34.8621176 L85.1347059,35.2574118 L91.4994118,35.2574118 L91.4994118,34.8621176 C89.9194118,34.4468235 89.8535294,34.3574118 89.8535294,33.348" id="Fill-19" fill="#005CA9"></path>
                <path d="M97.3248235,23.8443529 C93.3742353,23.8443529 91.7718824,24.6114118 91.7718824,29.7702353 C91.7718824,34.7972941 93.3954118,35.4772941 97.3248235,35.4772941 C101.275412,35.4772941 102.570706,34.9055294 102.570706,29.7702353 C102.570706,24.6349412 101.407176,23.8443529 97.3248235,23.8443529 M97.3248235,34.5337647 C95.2836471,34.5337647 95.0636471,34.3584706 95.0636471,29.7702353 C95.0636471,25.2478824 95.1742353,24.7878824 97.3248235,24.7878824 C99.1907059,24.7878824 99.2777647,25.2914118 99.2777647,29.7702353 C99.2777647,34.3584706 99.0812941,34.5337647 97.3248235,34.5337647" id="Fill-21" fill="#005CA9"></path>
                <path d="M98.8954118,22.5495294 L99.6412941,22.5495294 C100.520118,22.5495294 100.586,22.4824706 100.586,21.6048235 L100.586,20.8377647 C100.586,19.9601176 100.520118,19.8930588 99.6412941,19.8930588 L98.8954118,19.8930588 C98.0177647,19.8930588 97.9518824,19.9601176 97.9518824,20.8377647 L97.9518824,21.6048235 C97.9518824,22.4824706 98.0177647,22.5495294 98.8954118,22.5495294" id="Fill-23" fill="#005CA9"></path>
                <path d="M94.7024706,22.5495294 L95.4483529,22.5495294 C96.3271765,22.5495294 96.3930588,22.4824706 96.3930588,21.6048235 L96.3930588,20.8377647 C96.3930588,19.9601176 96.3271765,19.8930588 95.4483529,19.8930588 L94.7024706,19.8930588 C93.8248235,19.8930588 93.7589412,19.9601176 93.7589412,20.8377647 L93.7589412,21.6048235 C93.7589412,22.4824706 93.8248235,22.5495294 94.7024706,22.5495294" id="Fill-25" fill="#005CA9"></path>
                <path d="M113.956353,26.1927059 C113.956353,25.2703529 114.724588,24.8762353 115.646941,24.8762353 C116.941059,24.8762353 117.775176,25.3362353 118.654,27.268 L119.048118,27.268 L118.895176,24.1091765 C118.895176,24.1091765 117.249294,23.8444706 116.085765,23.8444706 C113.122235,23.8444706 111.761059,24.9421176 111.761059,27.2903529 C111.761059,31.8997647 117.445765,30.5385882 117.445765,33.0185882 C117.445765,33.9185882 116.699882,34.4456471 115.734,34.4456471 C114.351647,34.4456471 113.165765,33.8750588 112.156353,31.6797647 L111.761059,31.6797647 L111.826941,34.9503529 C112.419882,35.1256471 114.219882,35.4774118 115.579882,35.4774118 C118.279882,35.4774118 119.729294,34.1597647 119.729294,31.9209412 C119.729294,27.5091765 113.956353,28.6291765 113.956353,26.1927059" id="Fill-27" fill="#005CA9"></path>
                <path d="M135.111529,33.348 L135.111529,19.4538824 L130.392706,19.4538824 L130.392706,19.4550588 L130.391529,19.4550588 L130.391529,19.8503529 C131.993882,20.2668235 132.037412,20.3327059 132.037412,21.3644706 L132.037412,33.3491765 C132.037412,33.7997647 132.029176,34.0668235 131.885647,34.2585882 C131.829176,34.3338824 131.750353,34.3985882 131.643294,34.4562353 L131.643294,34.4550588 C131.616235,34.4715294 131.589176,34.4844706 131.560941,34.4997647 C131.509176,34.5232941 131.451529,34.548 131.388,34.5715294 C131.082118,34.6703529 130.773882,34.6468235 130.613882,34.6362353 C129.895059,34.5938824 129.725647,34.0844706 129.725647,33.2821176 L129.725647,27.2021176 C129.725647,25.0068235 128.475059,23.8444706 126.302118,23.8444706 C123.426824,23.8444706 120.858588,24.6785882 120.858588,26.8291765 C120.858588,27.7727059 121.275059,28.2997647 122.372706,28.2997647 C123.470353,28.2997647 123.909176,27.6409412 123.909176,26.7632941 C123.909176,25.9068235 123.602118,25.6656471 122.483294,25.4903529 L122.483294,25.4244706 C122.483294,25.4244706 123.645647,25.3585882 124.458588,25.3585882 C126.499765,25.3585882 126.652706,25.4456471 126.652706,27.6409412 L126.652706,29.3315294 L123.997412,29.3315294 C121.495059,29.3315294 120.572706,30.1432941 120.572706,32.448 C120.572706,34.8185882 121.429176,35.4785882 123.470353,35.4785882 C124.786824,35.4785882 126.104471,35.0385882 126.806824,34.5997647 C127.113882,35.2574118 127.859765,35.4785882 128.936235,35.4785882 C129.368,35.4785882 129.833882,35.4444706 130.348,35.388 C130.665647,35.3527059 131.000941,35.2609412 131.516235,35.2585882 L136.757412,35.2585882 L136.757412,35.2574118 L136.757412,34.8621176 C135.177412,34.4468235 135.111529,34.3574118 135.111529,33.348 L135.111529,33.348 Z M126.652706,33.7868235 L126.652706,33.9621176 C126.236235,34.0938824 125.752706,34.1597647 125.313882,34.1597647 C124.150353,34.1597647 123.777412,33.8962353 123.777412,32.4044706 C123.777412,30.3844706 123.888,30.2327059 126.652706,30.2091765 L126.652706,33.7868235 Z" id="Fill-29" fill="#005CA9"></path>
                <path d="M154.994353,22.3955294 L155.740235,22.3955294 C156.619059,22.3955294 156.684941,22.3284706 156.684941,21.452 L156.684941,20.6837647 C156.684941,19.8049412 156.619059,19.7390588 155.740235,19.7390588 L154.994353,19.7390588 C154.116706,19.7390588 154.050824,19.8049412 154.050824,20.6837647 L154.050824,21.452 C154.050824,22.3284706 154.116706,22.3955294 154.994353,22.3955294" id="Fill-31" fill="#005CA9"></path>
                <path d="M169.524471,33.348 L169.524471,26.7197647 C169.524471,24.3703529 167.833882,23.8444706 166.408,23.8444706 C165.112706,23.8444706 163.246824,24.4362353 162.258588,25.3150588 L162.258588,24.0632941 L157.978588,24.0632941 L157.978588,24.4585882 C159.580941,24.8750588 159.625647,24.9409412 159.625647,25.9727059 L159.625647,33.348 C159.625647,34.1715294 159.595059,34.3797647 158.769176,34.6432941 C158.525647,34.7244706 158.173882,34.7197647 157.978588,34.6585882 C157.100941,34.3821176 157.057412,34.1727059 157.057412,33.348 L157.057412,24.0632941 L152.338588,24.0632941 L152.338588,24.4585882 C153.940941,24.8750588 153.984471,24.9409412 153.984471,25.9727059 L153.984471,33.348 C153.984471,34.3797647 153.940941,34.4468235 152.338588,34.8621176 L152.338588,35.2574118 L157.978588,35.2574118 L158.703294,35.2574118 L164.344471,35.2574118 L164.344471,34.8621176 C162.763294,34.4468235 162.698588,34.3574118 162.698588,33.348 L162.698588,25.6432941 C163.531529,25.5785882 164.344471,25.5115294 165.156235,25.5115294 C166.319765,25.5115294 166.451529,25.7750588 166.451529,26.8727059 L166.451529,33.348 C166.451529,34.3797647 166.408,34.4468235 164.805647,34.8621176 L164.805647,35.2574118 L170.839765,35.2574118 L170.839765,34.8621176 C169.564471,34.4974118 169.524471,34.3574118 169.524471,33.348" id="Fill-33" fill="#005CA9"></path>
                <g id="Group-37" transform="translate(170.588235, 23.243059)" fill="#005CA9">
                    <path d="M7.22376471,9.42482353 L3.42611765,9.42482353 C2.68023529,9.42482353 2.39552941,9.11776471 2.39552941,8.70011765 C2.39552941,8.37070588 2.45788235,7.98717647 2.55082353,7.61658824 C3.25317647,7.79305882 4.02023529,7.84482353 5.16141176,7.84482353 C8.78258824,7.84482353 10.0331765,7.20835294 10.0331765,4.42011765 C10.0331765,3.14717647 9.70494118,2.24717647 9.04611765,1.65423529 L11.2414118,1.21423529 L11.2414118,0.820117647 C9.28729412,0.710705882 6.76376471,0.601294118 5.16141176,0.601294118 C2.57082353,0.601294118 0.244941176,1.14952941 0.244941176,4.42011765 C0.244941176,5.91305882 0.639058824,6.83423529 1.71552941,7.34011765 C0.617882353,8.48129412 0.375529412,9.28011765 0.419058824,10.2354118 C0.448470588,10.8718824 0.782588235,11.5083529 1.52847059,11.9707059 C0.869647059,12.8495294 0.419058824,14.0118824 0.419058824,14.7365882 C0.419058824,15.9871765 1.07788235,16.4707059 3.47082353,16.4707059 L6.91670588,16.4707059 C9.52847059,16.4707059 10.4731765,15.8565882 10.4731765,12.6507059 C10.4731765,10.1271765 9.74847059,9.42482353 7.22376471,9.42482353 M5.13905882,1.61070588 C6.38964706,1.61070588 6.74141176,1.87423529 6.74141176,4.35305882 C6.74141176,6.65894118 6.58729412,6.83423529 5.13905882,6.83423529 C3.84376471,6.83423529 3.53670588,6.65894118 3.53670588,4.35305882 C3.53670588,1.72011765 3.90964706,1.61070588 5.13905882,1.61070588 M6.16964706,15.4612941 L4.32611765,15.4612941 C2.65788235,15.4612941 2.15317647,15.3295294 2.15317647,14.0777647 C2.15317647,13.4636471 2.17552941,12.8271765 2.19788235,12.2118824 C2.43905882,12.2565882 2.70258824,12.2777647 2.98729412,12.2777647 L6.08258824,12.2777647 C7.86023529,12.2777647 8.27788235,12.4754118 8.27788235,13.9248235 C8.27788235,15.2636471 7.96964706,15.4612941 6.16964706,15.4612941" id="Fill-35"></path>
                </g>
                <path d="M127.268,22.5495294 L128.013882,22.5495294 C128.892706,22.5495294 128.958588,22.4824706 128.958588,21.6048235 L128.958588,20.8377647 C128.958588,19.9601176 128.892706,19.8930588 128.013882,19.8930588 L127.268,19.8930588 C126.390353,19.8930588 126.324471,19.9601176 126.324471,20.8377647 L126.324471,21.6048235 C126.324471,22.4824706 126.390353,22.5495294 127.268,22.5495294" id="Fill-38" fill="#005CA9"></path>
                <path d="M123.075647,22.5495294 L123.821529,22.5495294 C124.700353,22.5495294 124.766235,22.4824706 124.766235,21.6048235 L124.766235,20.8377647 C124.766235,19.9601176 124.700353,19.8930588 123.821529,19.8930588 L123.075647,19.8930588 C122.198,19.8930588 122.132118,19.9601176 122.132118,20.8377647 L122.132118,21.6048235 C122.132118,22.4824706 122.198,22.5495294 123.075647,22.5495294" id="Fill-40" fill="#005CA9"></path>
                <path d="M196.089176,33.348 L196.089176,24.0621176 L191.370353,24.0621176 L191.370353,24.4574118 C192.972706,24.8750588 193.016235,24.9409412 193.016235,25.9715294 L193.016235,33.348 C193.016235,34.0809412 192.966824,34.3303529 192.376235,34.5491765 C192.157412,34.6315294 191.670353,34.7315294 191.218588,34.5515294 C190.766824,34.3127059 190.672706,33.9503529 190.672706,33.2821176 L190.672706,27.2009412 C190.672706,25.0068235 189.420941,23.8444706 187.248,23.8444706 C184.372706,23.8444706 181.804471,24.6785882 181.804471,26.8291765 C181.804471,27.7738824 182.222118,28.2997647 183.319765,28.2997647 C184.416235,28.2997647 184.856235,27.6409412 184.856235,26.7621176 C184.856235,25.908 184.548,25.6668235 183.429176,25.4891765 L183.429176,25.4244706 C183.429176,25.4244706 184.592706,25.3585882 185.404471,25.3585882 C187.445647,25.3585882 187.599765,25.4456471 187.599765,27.6409412 L187.599765,29.3315294 L184.943294,29.3315294 C182.440941,29.3315294 181.519765,30.1432941 181.519765,32.448 C181.519765,34.8197647 182.375059,35.4774118 184.416235,35.4774118 C185.733882,35.4774118 187.050353,35.0385882 187.752706,34.5985882 C188.060941,35.2585882 188.806824,35.4774118 189.882118,35.4774118 C190.584471,35.4774118 191.719765,35.2585882 192.489176,35.2585882 L192.488,35.2574118 L197.735059,35.2574118 L197.735059,34.8609412 C196.155059,34.4456471 196.089176,34.3562353 196.089176,33.348 L196.089176,33.348 Z M187.599765,33.788 L187.599765,33.9621176 C187.182118,34.0950588 186.699765,34.1597647 186.260941,34.1597647 C185.097412,34.1597647 184.724471,33.8974118 184.724471,32.4032941 C184.724471,30.3844706 184.833882,30.2315294 187.599765,30.2103529 L187.599765,33.788 Z" id="Fill-42" fill="#005CA9"></path>
                <g id="Group-46" transform="translate(196.470588, 23.243059)">
                    <mask id="mask-2" fill="white">
                        <use xlink:href="#path-1"></use>
                    </mask>
                    <g id="Clip-45"></g>
                    <path d="M2.50870588,0.819529412 L1.62870588,0.819529412 C0.592235294,0.819529412 0.514588235,0.897176471 0.514588235,1.93364706 L0.514588235,2.83952941 C0.514588235,3.876 0.592235294,3.95247059 1.62870588,3.95247059 L2.50870588,3.95247059 C3.54517647,3.95247059 3.62282353,3.876 3.62282353,2.83952941 L3.62282353,1.93364706 C3.62282353,0.897176471 3.54517647,0.819529412 2.50870588,0.819529412" id="Fill-44" fill="#005CA9" mask="url(#mask-2)"></path>
                </g>
                <polygon id="Fill-47" fill="#005CA9" points="12.6097647 0.000117647059 12.6097647 9.80835294 25.4532941 9.80835294 25.4532941 35.2612941 35.2615294 35.2612941 35.2615294 0.000117647059"></polygon>
                <polygon id="Fill-49" fill="#005CA9" points="0.000117647059 0.000117647059 0.000117647059 35.2612941 22.6518824 35.2612941 22.6518824 25.4542353 9.80835294 25.4542353 9.80835294 0.000117647059"></polygon>
                <polygon id="Fill-51" fill="#E30613" points="12.6105882 22.6512941 22.6517647 22.6512941 22.6517647 12.6101176 12.6105882 12.6101176"></polygon>
            </g>
        </g>
    </g>
</svg>