<?xml version="1.0" encoding="UTF-8"?>
<svg width="380px" height="176px" viewBox="0 0 380 176" version="1.1" xmlns="http://www.w3.org/2000/svg" xmlns:xlink="http://www.w3.org/1999/xlink">
    <!-- Generator: Sketch 43.1 (39012) - http://www.bohemiancoding.com/sketch -->
    <title>Group 8</title>
    <desc>Created with Sketch.</desc>
    <defs>
        <filter x="-20.3%" y="-31.8%" width="140.6%" height="227.3%" filterUnits="objectBoundingBox" id="filter-1">
            <feOffset dx="0" dy="40" in="SourceAlpha" result="shadowOffsetOuter1"></feOffset>
            <feGaussianBlur stdDeviation="15" in="shadowOffsetOuter1" result="shadowBlurOuter1"></feGaussianBlur>
            <feColorMatrix values="0 0 0 0 0   0 0 0 0 0   0 0 0 0 0  0 0 0 0.5 0" type="matrix" in="shadowBlurOuter1" result="shadowMatrixOuter1"></feColorMatrix>
            <feMerge>
                <feMergeNode in="shadowMatrixOuter1"></feMergeNode>
                <feMergeNode in="SourceGraphic"></feMergeNode>
            </feMerge>
        </filter>
    </defs>
    <g id="Page-1" stroke="none" stroke-width="1" fill="none" fill-rule="evenodd">
        <g id="Landningssida-Länsförsäkringar-Copy" transform="translate(-402.000000, -2975.000000)">
            <g id="Group-17" transform="translate(-1.000000, 2638.000000)">
                <g id="Group-8" transform="translate(433.000000, 337.000000)">
                    <g id="Group-7" filter="url(#filter-1)" fill="#FFFFFF">
                        <rect id="Rectangle-3" transform="translate(160.000000, 93.000000) rotate(-315.000000) translate(-160.000000, -93.000000) " x="148" y="81" width="24" height="24"></rect>
                        <rect id="Rectangle-2" x="0" y="1.42108547e-14" width="320" height="99"></rect>
                    </g>
                    <path d="M32.726,38.518 L36.362,38.518 L36.362,36.16 L32.726,36.16 L32.726,32.758 L36.812,32.758 L36.812,30.4 L30.188,30.4 L30.188,43 L32.726,43 L32.726,38.518 Z M40.844,35.53 C40.718,33.982 38.792,34.018 37.748,34.306 L37.748,35.854 C38.396,35.728 38.594,36.196 38.594,36.916 L38.594,43 L40.916,43 L40.916,38.428 C40.916,36.988 41.69,36.34 42.59,36.34 C43.058,36.34 43.562,36.502 43.868,36.736 L44.552,34.792 C44.102,34.378 43.436,34.126 42.878,34.144 C41.996,34.144 41.222,34.63 40.844,35.53 Z M50.636,31.498 C50.636,32.632 49.88,33.388 48.728,33.388 C47.558,33.388 46.766,32.632 46.766,31.498 C46.766,30.382 47.576,29.626 48.692,29.626 C49.898,29.626 50.636,30.382 50.636,31.498 Z M48.026,31.498 C48.026,31.93 48.296,32.218 48.71,32.218 C49.124,32.218 49.394,31.93 49.394,31.498 C49.394,31.066 49.124,30.778 48.71,30.778 C48.296,30.778 48.026,31.066 48.026,31.498 Z M50.168,41.668 C49.736,42.748 48.62,43.18 47.702,43.18 C46.1,43.18 45.02,42.064 45.02,40.372 C45.02,38.68 46.172,37.546 47.882,37.546 C48.494,37.546 49.214,37.726 49.682,37.996 L49.682,37.312 C49.682,36.412 48.872,36.052 47.972,36.034 C47.234,36.016 46.442,36.214 45.974,36.52 L45.542,34.882 C46.316,34.45 47.396,34.144 48.386,34.144 C50.348,34.144 51.986,34.882 51.986,37.384 L51.986,40.48 C51.986,41.218 52.076,41.65 52.778,41.596 L52.796,43 C51.698,43.288 50.258,43.216 50.168,41.668 Z M49.664,39.562 C49.286,39.328 48.854,39.166 48.314,39.166 C47.756,39.166 47.342,39.616 47.342,40.228 C47.342,40.804 47.702,41.218 48.314,41.218 C49.052,41.218 49.628,40.696 49.664,39.562 Z M59.276,43 L61.67,43 L61.67,37.798 C61.67,35.638 60.968,34.144 58.862,34.144 C58.016,34.144 57.044,34.558 56.54,35.476 C56.504,33.91 54.47,34.054 53.462,34.306 L53.462,35.872 C54.146,35.872 54.272,36.142 54.272,37.006 L54.272,43 L56.648,43 L56.648,37.852 C56.648,36.628 57.332,36.124 58.052,36.124 C58.7,36.124 59.276,36.61 59.276,37.798 L59.276,43 Z M67.286,30.4 L71.318,30.4 C74.504,30.4 76.628,32.902 76.628,36.664 C76.628,40.462 74.504,43 71.318,43 L67.286,43 L67.286,30.4 Z M69.824,40.57 L71.282,40.57 C72.974,40.57 74.09,39.022 74.09,36.682 C74.09,34.378 72.974,32.83 71.282,32.83 L69.824,32.83 L69.824,40.57 Z M82.82,41.668 C82.388,42.748 81.272,43.18 80.354,43.18 C78.752,43.18 77.672,42.118 77.672,40.426 C77.672,38.698 78.932,37.78 80.498,37.78 C81.11,37.78 81.758,37.924 82.334,38.23 L82.334,37.312 C82.334,36.412 81.524,36.052 80.624,36.034 C79.886,36.016 79.094,36.214 78.626,36.52 L78.194,34.882 C78.968,34.45 80.048,34.144 81.038,34.144 C83,34.144 84.638,34.882 84.638,37.384 L84.638,40.48 C84.638,41.218 84.728,41.65 85.43,41.596 L85.448,43 C84.35,43.288 82.91,43.216 82.82,41.668 Z M82.316,39.724 C81.992,39.526 81.452,39.346 80.984,39.346 C80.48,39.346 79.994,39.598 79.994,40.3 C79.994,40.876 80.354,41.218 80.966,41.218 C81.704,41.218 82.316,40.696 82.316,39.724 Z M91.928,43 L94.322,43 L94.322,37.798 C94.322,35.638 93.62,34.144 91.514,34.144 C90.668,34.144 89.696,34.558 89.192,35.476 C89.156,33.91 87.122,34.054 86.114,34.306 L86.114,35.872 C86.798,35.872 86.924,36.142 86.924,37.006 L86.924,43 L89.3,43 L89.3,37.852 C89.3,36.628 89.984,36.124 90.704,36.124 C91.352,36.124 91.928,36.61 91.928,37.798 L91.928,43 Z M95.942,31.66 C95.942,32.65 96.662,33.136 97.364,33.118 C98.048,33.1 98.714,32.614 98.714,31.66 C98.714,30.724 98.03,30.22 97.346,30.22 C96.644,30.22 95.942,30.67 95.942,31.66 Z M96.14,43 L98.516,43 L98.516,34.324 L96.14,34.324 L96.14,43 Z M103.934,34.144 C106.688,34.144 107.822,36.268 107.228,39.4 L102.386,39.4 C102.512,40.66 103.214,41.2 104.348,41.2 C105.194,41.2 106.148,40.948 106.904,40.624 L107.156,42.406 C106.274,42.892 105.266,43.18 104.258,43.18 C101.792,43.18 99.992,41.452 99.992,38.554 C99.992,35.53 102.008,34.144 103.934,34.144 Z M102.368,37.852 L105.302,37.852 C105.374,36.682 104.924,35.962 103.952,35.962 C103.052,35.962 102.404,36.7 102.368,37.852 Z M111.098,29.824 L108.758,29.824 L108.758,39.742 C108.758,42.244 109.748,43.18 111.314,43.18 C111.692,43.18 112.106,43.144 112.556,43.036 L112.502,41.146 C112.322,41.182 112.142,41.218 112.016,41.218 C111.386,41.218 111.098,40.822 111.098,39.742 L111.098,29.824 Z M37.244,63.096 L37.244,69 L38.666,69 L38.666,56.4 L37.244,56.4 L37.244,61.71 L31.808,61.71 L31.808,56.4 L30.386,56.4 L30.386,69 L31.808,69 L31.808,63.096 L37.244,63.096 Z M44.534,60.144 C47.018,60.144 48.242,61.944 47.81,64.806 L42.032,64.806 C41.978,66.84 43.274,68.01 44.84,68.01 C45.704,68.01 46.532,67.794 47.396,67.38 L47.576,68.442 C46.712,68.928 45.758,69.18 44.858,69.18 C42.41,69.18 40.664,67.47 40.736,64.428 C40.808,61.692 42.518,60.144 44.534,60.144 Z M44.534,61.26 C43.256,61.26 42.302,62.16 42.104,63.726 L46.694,63.726 C46.766,61.944 45.776,61.26 44.534,61.26 Z M49.502,57.462 C49.502,58.074 49.934,58.362 50.348,58.362 C50.762,58.362 51.176,58.074 51.176,57.462 C51.176,56.868 50.762,56.58 50.33,56.58 C49.916,56.58 49.502,56.868 49.502,57.462 Z M51.014,60.324 L51.014,69.954 C51.014,72.276 50.348,73.482 48.764,73.5 C48.494,73.5 48.17,73.464 47.846,73.392 L47.882,72.294 C48.098,72.33 48.278,72.366 48.44,72.366 C49.52,72.366 49.7,71.43 49.7,69.936 L49.7,60.324 L51.014,60.324 Z M53.408,56.4 L53.516,66.354 L54.794,66.354 L54.866,56.4 L53.408,56.4 Z M54.128,69.234 C54.596,69.234 54.974,68.892 54.974,68.406 C54.974,67.902 54.596,67.578 54.128,67.578 C53.678,67.578 53.318,67.902 53.318,68.406 C53.318,68.892 53.678,69.234 54.128,69.234 Z M66.638,61.71 L65.18,66.426 L65.162,66.426 L63.65,61.728 L61.814,56.4 L60.356,56.4 L60.356,56.616 L64.856,69.18 L65.45,69.18 L69.914,56.616 L69.914,56.4 L68.438,56.4 L66.638,61.71 Z M76.322,67.47 C75.8,68.676 74.576,69.18 73.478,69.18 C71.93,69.18 70.85,68.1 70.85,66.462 C70.85,64.464 72.218,63.69 73.802,63.69 C74.576,63.69 75.386,63.852 76.124,64.176 L76.124,63.114 C76.124,61.656 74.954,61.278 73.964,61.278 C73.082,61.278 72.236,61.476 71.642,61.908 L71.39,60.846 C72.11,60.414 73.118,60.144 74.09,60.144 C75.8,60.144 77.366,60.882 77.366,63.15 L77.366,66.804 C77.366,67.722 77.438,68.316 78.32,68.172 L78.338,69.09 C77.132,69.324 76.34,69.054 76.322,67.47 Z M76.124,66.102 L76.124,65.238 C75.476,64.914 74.774,64.77 74.108,64.77 C73.046,64.77 72.164,65.184 72.164,66.408 C72.164,67.344 72.83,67.974 73.73,67.974 C74.666,67.974 75.89,67.398 76.124,66.102 Z M85.394,67.326 C84.908,68.568 83.882,69.162 82.73,69.162 C80.534,69.162 79.256,67.362 79.256,64.644 C79.256,61.944 80.75,60.144 83,60.144 C83.702,60.144 84.476,60.396 85.088,60.846 L85.088,55.824 L86.42,55.824 L86.42,66.138 C86.42,67.308 86.402,68.19 87.392,68.046 L87.41,69.072 C86.132,69.324 85.394,68.838 85.394,67.326 Z M85.124,65.022 L85.124,62.124 C84.548,61.656 83.9,61.368 83.27,61.368 C81.524,61.368 80.588,62.61 80.588,64.644 C80.588,66.606 81.416,67.902 82.928,67.902 C84.26,67.902 85.124,66.588 85.124,65.022 Z M98.174,69.702 L98.174,68.352 C97.382,69 96.59,69.18 95.852,69.18 C93.782,69.18 92.414,67.434 92.414,64.698 C92.414,61.782 94.034,60.144 96.482,60.144 C97.544,60.144 98.534,60.468 99.452,60.954 L99.452,69.594 C99.452,71.934 98.048,73.5 95.96,73.5 C94.97,73.5 93.89,73.158 92.936,72.528 L93.152,71.412 C94.016,71.952 95.042,72.33 95.942,72.312 C97.274,72.294 98.174,71.25 98.174,69.702 Z M98.156,67.128 L98.156,61.764 C97.58,61.494 97.004,61.35 96.428,61.35 C94.826,61.35 93.746,62.502 93.746,64.68 C93.746,66.804 94.682,67.974 96.104,67.974 C96.77,67.974 97.472,67.74 98.156,67.128 Z M103.646,58.2 C104.078,58.2 104.42,57.894 104.42,57.444 C104.42,56.976 104.06,56.688 103.646,56.688 C103.232,56.688 102.908,56.994 102.908,57.444 C102.908,57.912 103.25,58.2 103.646,58.2 Z M106.634,58.2 C107.03,58.2 107.39,57.894 107.39,57.444 C107.39,56.976 107.03,56.688 106.634,56.688 C106.184,56.688 105.878,56.994 105.878,57.444 C105.878,57.912 106.22,58.2 106.634,58.2 Z M109.01,64.644 C109.01,67.362 107.462,69.18 105.122,69.18 C102.782,69.18 101.234,67.362 101.234,64.644 C101.234,61.926 102.782,60.144 105.104,60.144 C107.444,60.144 109.01,61.926 109.01,64.644 Z M102.566,64.644 C102.566,66.642 103.592,67.992 105.122,67.992 C106.652,67.992 107.678,66.642 107.678,64.644 C107.678,62.664 106.652,61.35 105.104,61.35 C103.574,61.35 102.566,62.664 102.566,64.644 Z M112.286,61.584 C112.232,60.252 111.314,60.09 110.18,60.324 L110.198,61.296 C111.044,61.206 111.062,61.674 111.062,62.466 L111.062,69 L112.376,69 L112.376,63.816 C112.376,62.358 113.33,61.404 114.356,61.404 C114.914,61.404 115.364,61.566 115.832,61.926 L116.39,60.792 C115.886,60.36 115.148,60.144 114.5,60.144 C113.546,60.144 112.79,60.594 112.286,61.584 Z M127.226,67.326 C126.74,68.568 125.714,69.162 124.562,69.162 C122.366,69.162 121.088,67.362 121.088,64.644 C121.088,61.944 122.582,60.144 124.832,60.144 C125.534,60.144 126.308,60.396 126.92,60.846 L126.92,55.824 L128.252,55.824 L128.252,66.138 C128.252,67.308 128.234,68.19 129.224,68.046 L129.242,69.072 C127.964,69.324 127.226,68.838 127.226,67.326 Z M126.956,65.022 L126.956,62.124 C126.38,61.656 125.732,61.368 125.102,61.368 C123.356,61.368 122.42,62.61 122.42,64.644 C122.42,66.606 123.248,67.902 124.76,67.902 C126.092,67.902 126.956,66.588 126.956,65.022 Z M137.306,60.324 L135.974,60.324 L135.974,65.274 C135.974,66.912 135.146,68.01 133.886,68.01 C132.77,68.01 132.068,67.11 132.068,65.382 L132.068,60.324 L130.718,60.324 L130.718,65.382 C130.718,67.83 131.942,69.18 133.652,69.18 C134.534,69.18 135.398,68.874 136.1,67.83 C136.1,69.288 137.144,69.216 138.17,68.964 L138.152,67.992 C137.486,68.262 137.306,67.956 137.306,66.678 L137.306,60.324 Z M143.57,57.426 C143.57,57.93 143.894,58.272 144.398,58.272 C144.902,58.272 145.226,57.93 145.226,57.426 C145.226,56.922 144.902,56.58 144.398,56.58 C143.894,56.58 143.57,56.922 143.57,57.426 Z M143.732,69 L145.064,69 L145.064,60.324 L143.732,60.324 L143.732,69 Z M154.046,69 L154.046,68.838 L151.652,64.59 C152.912,63.96 153.776,62.628 153.686,60.324 L152.426,60.324 C152.426,62.826 151.598,63.906 149.618,63.906 L148.7,63.906 L148.7,55.842 L147.368,55.842 L147.368,69 L148.7,69 L148.7,65.058 L149.6,65.058 C149.906,65.058 150.194,65.04 150.482,64.986 L152.678,69 L154.046,69 Z M154.766,60.486 L158.294,69.18 L158.852,69.18 L162.362,60.486 L162.362,60.324 L160.922,60.324 L159.518,64.032 L158.582,66.678 L157.646,64.05 L156.206,60.324 L154.766,60.324 L154.766,60.486 Z M165.278,58.398 C165.728,58.398 166.106,58.092 166.106,57.588 C166.106,57.048 165.71,56.76 165.278,56.76 C164.81,56.76 164.468,57.12 164.468,57.588 C164.468,58.11 164.846,58.398 165.278,58.398 Z M168.23,58.398 C168.68,58.398 169.04,58.092 169.04,57.588 C169.04,57.066 168.68,56.76 168.23,56.76 C167.762,56.76 167.42,57.12 167.42,57.588 C167.42,58.11 167.798,58.398 168.23,58.398 Z M168.752,67.47 C168.23,68.676 167.006,69.18 165.908,69.18 C164.36,69.18 163.28,68.1 163.28,66.462 C163.28,64.464 164.648,63.69 166.232,63.69 C167.006,63.69 167.816,63.852 168.554,64.176 L168.554,63.114 C168.554,61.656 167.384,61.278 166.394,61.278 C165.512,61.278 164.666,61.476 164.072,61.908 L163.82,60.846 C164.54,60.414 165.548,60.144 166.52,60.144 C168.23,60.144 169.796,60.882 169.796,63.15 L169.796,66.804 C169.796,67.722 169.868,68.316 170.75,68.172 L170.768,69.09 C169.562,69.324 168.77,69.054 168.752,67.47 Z M168.554,66.102 L168.554,65.238 C167.906,64.914 167.204,64.77 166.538,64.77 C165.476,64.77 164.594,65.184 164.594,66.408 C164.594,67.344 165.26,67.974 166.16,67.974 C167.096,67.974 168.32,67.398 168.554,66.102 Z M173.396,55.806 L172.064,55.806 L172.064,66.138 C172.064,68.388 172.712,69.162 174.26,69.18 C174.548,69.18 174.872,69.144 175.232,69.072 L175.178,67.956 C174.962,67.992 174.764,68.01 174.584,68.01 C173.612,67.992 173.396,67.416 173.396,65.976 L173.396,55.806 Z M177.662,55.806 L176.33,55.806 L176.33,66.138 C176.33,68.388 176.978,69.162 178.526,69.18 C178.814,69.18 179.138,69.144 179.498,69.072 L179.444,67.956 C179.228,67.992 179.03,68.01 178.85,68.01 C177.878,67.992 177.662,67.416 177.662,65.976 L177.662,55.806 Z M183.836,66.336 C183.728,63.15 185.87,62.304 186.356,60.468 C186.446,60.162 186.464,59.802 186.446,59.406 C186.374,57.174 184.862,56.22 183.242,56.22 C181.514,56.22 180.038,57.21 180.038,59.514 L181.298,59.514 C181.298,58.056 182.144,57.552 183.26,57.552 C184.268,57.552 185.096,58.38 185.042,59.586 C184.916,62.286 182.432,61.98 182.504,66.336 L183.836,66.336 Z M183.206,69.234 C183.674,69.234 184.016,68.892 184.016,68.388 C184.016,67.884 183.674,67.56 183.206,67.56 C182.738,67.56 182.36,67.884 182.36,68.388 C182.36,68.892 182.738,69.234 183.206,69.234 Z M199.892,59.82 C199.892,61.044 199.298,61.962 198.398,62.43 C199.586,62.916 200.378,63.87 200.378,65.454 C200.378,67.578 198.938,69 196.76,69 L192.296,69 L192.296,56.4 L196.526,56.4 C198.542,56.4 199.892,57.768 199.892,59.82 Z M193.718,61.944 L196.436,61.944 C197.678,61.944 198.506,61.098 198.506,59.838 C198.506,58.524 197.678,57.66 196.436,57.66 L193.718,57.66 L193.718,61.944 Z M193.718,67.704 L196.778,67.704 C198.236,67.704 198.956,66.804 198.956,65.454 C198.956,64.104 198.02,63.204 196.616,63.204 L193.718,63.204 L193.718,67.704 Z M202.124,57.426 C202.124,57.93 202.448,58.272 202.952,58.272 C203.456,58.272 203.78,57.93 203.78,57.426 C203.78,56.922 203.456,56.58 202.952,56.58 C202.448,56.58 202.124,56.922 202.124,57.426 Z M202.286,69 L203.618,69 L203.618,60.324 L202.286,60.324 L202.286,69 Z M213.248,64.644 C213.248,67.362 211.7,69.18 209.36,69.18 C207.02,69.18 205.472,67.362 205.472,64.644 C205.472,61.926 207.02,60.144 209.342,60.144 C211.682,60.144 213.248,61.926 213.248,64.644 Z M206.804,64.644 C206.804,66.642 207.83,67.992 209.36,67.992 C210.89,67.992 211.916,66.642 211.916,64.644 C211.916,62.664 210.89,61.35 209.342,61.35 C207.812,61.35 206.804,62.664 206.804,64.644 Z M218.252,66.336 C218.144,63.15 220.286,62.304 220.772,60.468 C220.862,60.162 220.88,59.802 220.862,59.406 C220.79,57.174 219.278,56.22 217.658,56.22 C215.93,56.22 214.454,57.21 214.454,59.514 L215.714,59.514 C215.714,58.056 216.56,57.552 217.676,57.552 C218.684,57.552 219.512,58.38 219.458,59.586 C219.332,62.286 216.848,61.98 216.92,66.336 L218.252,66.336 Z M217.622,69.234 C218.09,69.234 218.432,68.892 218.432,68.388 C218.432,67.884 218.09,67.56 217.622,67.56 C217.154,67.56 216.776,67.884 216.776,68.388 C216.776,68.892 217.154,69.234 217.622,69.234 Z" id="Från-Daniel-Hej!-Vad" fill="#000000"></path>
                    <path d="M222.686,20.2 L222.686,21.838 L223.862,21.838 L223.862,28.39 L222.518,28.39 L222.518,30 L227.152,30 L227.152,28.39 L225.766,28.39 L225.766,20.2 L222.686,20.2 Z M238.478,30 L240.34,30 L240.34,25.954 C240.34,24.316 240.004,23.112 238.352,23.112 C237.596,23.112 236.798,23.518 236.448,24.344 C236.168,23.574 235.664,23.112 234.656,23.112 C233.97,23.112 233.228,23.49 232.906,24.19 C232.906,22.846 231.254,23.042 230.512,23.294 L230.512,24.484 C231.142,24.428 231.17,24.666 231.17,25.324 L231.17,30 L233.004,30 L233.004,26.01 C233.004,25.1 233.494,24.68 233.998,24.68 C234.53,24.68 234.894,25.086 234.894,25.968 L234.894,30 L236.714,30 L236.714,25.968 C236.714,25.072 237.148,24.68 237.638,24.68 C238.114,24.68 238.478,25.058 238.478,25.954 L238.478,30 Z M241.614,21.18 C241.614,21.95 242.174,22.328 242.72,22.314 C243.252,22.3 243.77,21.922 243.77,21.18 C243.77,20.452 243.238,20.06 242.706,20.06 C242.16,20.06 241.614,20.41 241.614,21.18 Z M241.768,30 L243.616,30 L243.616,23.252 L241.768,23.252 L241.768,30 Z M249.202,30 L251.064,30 L251.064,25.954 C251.064,24.274 250.518,23.112 248.88,23.112 C248.222,23.112 247.466,23.434 247.074,24.148 C247.046,22.93 245.464,23.042 244.68,23.238 L244.68,24.456 C245.212,24.456 245.31,24.666 245.31,25.338 L245.31,30 L247.158,30 L247.158,25.996 C247.158,25.044 247.69,24.652 248.25,24.652 C248.754,24.652 249.202,25.03 249.202,25.954 L249.202,30 Z M258.036,23.252 L256.188,23.252 L256.188,27.116 C256.188,28.124 255.712,28.6 255.138,28.6 C254.522,28.6 254.27,28.068 254.27,27.256 L254.27,23.252 L252.408,23.252 L252.408,27.256 C252.408,29.034 253.066,30.14 254.592,30.14 C255.278,30.14 255.964,29.874 256.398,29.02 C256.398,30.322 257.868,30.224 258.652,30 L258.652,28.782 C258.162,28.824 258.036,28.6 258.036,27.97 L258.036,23.252 Z M263.804,23.252 L261.998,23.252 L261.998,21.166 L260.444,21.166 L260.248,23.252 L259.142,23.252 L259.142,24.596 L260.192,24.708 L260.192,27.368 C260.192,29.398 261.214,30.14 262.53,30.14 C263.006,30.14 263.524,30.042 264.056,29.874 L263.888,28.446 C263.58,28.572 263.3,28.614 263.02,28.6 C262.46,28.572 261.998,28.264 261.998,27.326 L261.998,24.708 L263.804,24.708 L263.804,23.252 Z M267.374,27.9 C267.402,29.244 268.34,30.14 270.076,30.14 C271.644,30.14 272.68,29.286 272.68,27.998 C272.68,26.276 271.308,26.038 270.034,25.856 C269.712,25.814 269.278,25.702 269.292,25.198 C269.292,24.806 269.586,24.582 270.034,24.582 C270.496,24.582 270.818,24.848 270.846,25.24 L272.484,25.24 C272.554,23.812 271.336,23.112 269.992,23.112 C268.494,23.112 267.486,23.952 267.486,25.226 C267.486,26.766 268.97,27.102 270.104,27.298 C270.468,27.354 270.818,27.564 270.818,28.026 C270.818,28.474 270.482,28.726 269.992,28.726 C269.53,28.726 269.208,28.39 269.194,27.9 L267.374,27.9 Z M276.53,23.112 C278.672,23.112 279.554,24.764 279.092,27.2 L275.326,27.2 C275.424,28.18 275.97,28.6 276.852,28.6 C277.51,28.6 278.252,28.404 278.84,28.152 L279.036,29.538 C278.35,29.916 277.566,30.14 276.782,30.14 C274.864,30.14 273.464,28.796 273.464,26.542 C273.464,24.19 275.032,23.112 276.53,23.112 Z M275.312,25.996 L277.594,25.996 C277.65,25.086 277.3,24.526 276.544,24.526 C275.844,24.526 275.34,25.1 275.312,25.996 Z M284.44,28.866 C284.132,29.706 283.39,30.14 282.676,30.14 C281.052,30.14 280.03,28.74 280.03,26.626 C280.03,24.372 281.29,23.112 282.76,23.112 C283.18,23.112 283.614,23.182 284.048,23.434 L284.048,19.766 L285.896,19.766 L285.896,27.76 C285.896,28.418 285.966,28.852 286.512,28.74 L286.498,30.014 C285.658,30.252 284.51,30.252 284.44,28.866 Z M284.104,26.892 L284.104,25.086 C283.796,24.848 283.488,24.778 283.208,24.778 C282.466,24.778 281.906,25.352 281.906,26.598 C281.906,27.676 282.396,28.404 283.068,28.404 C283.712,28.404 284.104,27.718 284.104,26.892 Z M291.174,28.964 C290.838,29.804 289.97,30.14 289.256,30.14 C288.01,30.14 287.17,29.314 287.17,27.998 C287.17,26.654 288.15,25.94 289.368,25.94 C289.844,25.94 290.348,26.052 290.796,26.29 L290.796,25.576 C290.796,24.876 290.166,24.596 289.466,24.582 C288.892,24.568 288.276,24.722 287.912,24.96 L287.576,23.686 C288.178,23.35 289.018,23.112 289.788,23.112 C291.314,23.112 292.588,23.686 292.588,25.632 L292.588,28.04 C292.588,28.614 292.658,28.95 293.204,28.908 L293.218,30 C292.364,30.224 291.244,30.168 291.174,28.964 Z M290.782,27.452 C290.53,27.298 290.11,27.158 289.746,27.158 C289.354,27.158 288.976,27.354 288.976,27.9 C288.976,28.348 289.256,28.614 289.732,28.614 C290.306,28.614 290.782,28.208 290.782,27.452 Z M298.258,30 L300.12,30 L300.12,25.954 C300.12,24.274 299.574,23.112 297.936,23.112 C297.278,23.112 296.522,23.434 296.13,24.148 C296.102,22.93 294.52,23.042 293.736,23.238 L293.736,24.456 C294.268,24.456 294.366,24.666 294.366,25.338 L294.366,30 L296.214,30 L296.214,25.996 C296.214,25.044 296.746,24.652 297.306,24.652 C297.81,24.652 298.258,25.03 298.258,25.954 L298.258,30 Z" id="1-minut-sedan" fill="#000000" opacity="0.319999993"></path>
                </g>
            </g>
        </g>
    </g>
</svg>