<?xml version="1.0" encoding="UTF-8"?>
<svg width="67px" height="67px" viewBox="0 0 67 67" version="1.1" xmlns="http://www.w3.org/2000/svg" xmlns:xlink="http://www.w3.org/1999/xlink">
    <!-- Generator: Sketch 43.2 (39069) - http://www.bohemiancoding.com/sketch -->
    <title>Group 48</title>
    <desc>Created with Sketch.</desc>
    <defs></defs>
    <g id="Page-1" stroke="none" stroke-width="1" fill="none" fill-rule="evenodd">
        <g id="Landningssida-Länsförsäkringar-Copy" transform="translate(-699.000000, -9175.000000)" fill-rule="nonzero" fill="#000000">
            <g id="Group-42" transform="translate(332.000000, 8241.000000)">
                <g id="Group-50" transform="translate(361.000000, 934.000000)">
                    <g id="Group-48" transform="translate(6.000000, 0.000000)">
                        <path d="M33.5,64 C50.3446849,64 64,50.3446849 64,33.5 C64,16.6553151 50.3446849,3 33.5,3 C16.6553151,3 3,16.6553151 3,33.5 C3,50.3446849 16.6553151,64 33.5,64 Z M33.5,67 C14.9984609,67 0,52.0015391 0,33.5 C0,14.9984609 14.9984609,0 33.5,0 C52.0015391,0 67,14.9984609 67,33.5 C67,52.0015391 52.0015391,67 33.5,67 Z" id="Oval-13"></path>
                        <g id="Group-47" transform="translate(20.000000, 20.000000)">
                            <polygon id="Path-26" points="0.74609375 15 26.7460938 15 26.7460938 12 0.74609375 12"></polygon>
                            <polygon id="Path-26" points="15.2460938 26.5 15.2460938 0.5 12.2460938 0.5 12.2460938 26.5"></polygon>
                        </g>
                    </g>
                </g>
            </g>
        </g>
    </g>
</svg>