<?xml version="1.0" encoding="utf-8"?>
<!-- Generator: Adobe Illustrator 21.0.2, SVG Export Plug-In . SVG Version: 6.00 Build 0)  -->
<svg version="1.1" id="Lager_1" xmlns="http://www.w3.org/2000/svg" xmlns:xlink="http://www.w3.org/1999/xlink" x="0px" y="0px"
	 viewBox="0 0 3808.6 148" style="enable-background:new 0 0 3808.6 148;" xml:space="preserve">
<style type="text/css">
	.st0{fill:#085DA9;}
</style>
<g>
	<g>
		<g>
			<path class="st0" d="M805.3,132.2c-268.8,0-537.9-3.3-805.3-12.5l0.2-5c267.3,9.2,536.5,12.5,805.1,12.5
				c369.3,0,737.6-6.3,1098.9-12.5s729.7-12.5,1099-12.5c268.8,0,538,3.3,805.3,12.5l-0.2,5c-634.7-21.7-1280-10.7-1904.1,0
				C1543.1,125.9,1174.7,132.2,805.3,132.2z"/>
		</g>
	</g>
	<g>
		<g>
			<g>
				<path class="st0" d="M3808.5,80.7L3808.5,80.7c-5.1-0.2-10.1-0.3-15.1-0.5c-1.4,0-2.5-1.2-2.4-2.6c0-1.4,1.2-2.4,2.5-2.4h0.1
					c5,0.2,10,0.3,15,0.5c1.4,0,2.5,1.2,2.4,2.6C3811,79.6,3809.9,80.7,3808.5,80.7z"/>
			</g>
			<g>
				<path class="st0" d="M801,94.3c-10.1,0-20.2,0-30.2,0c-1.4,0-2.5-1.1-2.5-2.5s1.1-2.5,2.5-2.5l0,0c10.1,0,20.2,0,30.2,0
					c1.4,0,2.5,1.1,2.5,2.5C803.5,93.1,802.4,94.3,801,94.3z M831.2,94.3c-1.4,0-2.5-1.1-2.5-2.5s1.1-2.5,2.5-2.5
					c10.1,0,20.2,0,30.2,0l0,0c1.4,0,2.5,1.1,2.5,2.5s-1.1,2.5-2.5,2.5C851.4,94.2,841.3,94.2,831.2,94.3z M740.5,94.2L740.5,94.2
					c-10.1,0-20.2,0-30.2-0.1c-1.4,0-2.5-1.1-2.5-2.5s1.1-2.5,2.5-2.5l0,0c10.1,0,20.2,0.1,30.2,0.1c1.4,0,2.5,1.1,2.5,2.5
					S741.9,94.2,740.5,94.2z M891.7,94.2c-1.4,0-2.5-1.1-2.5-2.5s1.1-2.5,2.5-2.5c10.1,0,20.2-0.1,30.2-0.1l0,0
					c1.4,0,2.5,1.1,2.5,2.5s-1.1,2.5-2.5,2.5C911.8,94.1,901.7,94.1,891.7,94.2L891.7,94.2z M680.1,94C680,94,680,94,680.1,94
					c-10.1,0-20.2-0.1-30.2-0.1c-1.4,0-2.5-1.1-2.5-2.5s1.1-2.5,2.5-2.5l0,0C660,89,670.1,89,680.1,89c1.4,0,2.5,1.1,2.5,2.5
					C682.5,92.9,681.4,94,680.1,94z M952.1,93.9c-1.4,0-2.5-1.1-2.5-2.5s1.1-2.5,2.5-2.5c10.1,0,20.2-0.1,30.2-0.1l0,0
					c1.4,0,2.5,1.1,2.5,2.5s-1.1,2.5-2.5,2.5C972.3,93.9,962.2,93.9,952.1,93.9L952.1,93.9z M619.6,93.7L619.6,93.7
					c-10.1-0.1-20.2-0.1-30.2-0.2c-1.4,0-2.5-1.1-2.5-2.5s1.1-2.5,2.5-2.5l0,0c10.1,0.1,20.2,0.1,30.2,0.2c1.4,0,2.5,1.1,2.5,2.5
					S621,93.7,619.6,93.7z M1012.6,93.6c-1.4,0-2.5-1.1-2.5-2.5s1.1-2.5,2.5-2.5c10.1-0.1,20.2-0.1,30.2-0.2c1.4,0,2.5,1.1,2.5,2.5
					s-1.1,2.5-2.5,2.5C1032.8,93.5,1022.7,93.6,1012.6,93.6L1012.6,93.6z M559.1,93.3L559.1,93.3c-10.1-0.1-20.2-0.2-30.3-0.3
					c-1.4,0-2.5-1.1-2.5-2.5s1.1-2.5,2.5-2.5l0,0c10.1,0.1,20.2,0.2,30.2,0.3c1.4,0,2.5,1.1,2.5,2.5
					C561.6,92.1,560.5,93.3,559.1,93.3z M1073.1,93.2c-1.4,0-2.5-1.1-2.5-2.5s1.1-2.5,2.5-2.5c10.1-0.1,20.2-0.2,30.2-0.2l0,0
					c1.4,0,2.5,1.1,2.5,2.5s-1.1,2.5-2.5,2.5C1093.2,93.1,1083.1,93.2,1073.1,93.2L1073.1,93.2z M1133.5,92.8
					c-1.4,0-2.5-1.1-2.5-2.5s1.1-2.5,2.5-2.5c10.1-0.1,20.2-0.2,30.2-0.3l0,0c1.4,0,2.5,1.1,2.5,2.5s-1.1,2.5-2.5,2.5
					C1153.7,92.6,1143.6,92.7,1133.5,92.8L1133.5,92.8z M498.7,92.7L498.7,92.7c-10.1-0.1-20.2-0.2-30.3-0.3c-1.4,0-2.5-1.2-2.5-2.5
					c0-1.4,1.1-2.5,2.5-2.5l0,0c10.1,0.1,20.2,0.2,30.2,0.3c1.4,0,2.5,1.1,2.5,2.5C501.2,91.6,500,92.7,498.7,92.7z M1194,92.2
					c-1.4,0-2.5-1.1-2.5-2.5s1.1-2.5,2.5-2.5c10.1-0.1,20.2-0.2,30.2-0.3c1.4,0,2.5,1.1,2.5,2.5s-1.1,2.5-2.5,2.5
					C1214.2,92,1204.1,92.1,1194,92.2L1194,92.2z M438.2,91.9L438.2,91.9c-10.1-0.1-20.2-0.3-30.3-0.4c-1.4,0-2.5-1.2-2.5-2.5
					c0-1.4,1.2-2.5,2.5-2.5c10.1,0.1,20.2,0.3,30.2,0.4c1.4,0,2.5,1.2,2.5,2.5C440.7,90.8,439.6,91.9,438.2,91.9z M1254.4,91.5
					c-1.4,0-2.5-1.1-2.5-2.5s1.1-2.5,2.5-2.5c10.1-0.1,20.2-0.2,30.2-0.3l0,0c1.4,0,2.5,1.1,2.5,2.5s-1.1,2.5-2.5,2.5
					C1274.6,91.3,1264.5,91.4,1254.4,91.5L1254.4,91.5z M377.8,91.1C377.7,91.1,377.7,91.1,377.8,91.1c-10.1-0.2-20.2-0.3-30.3-0.5
					c-1.4,0-2.5-1.2-2.5-2.5c0-1.4,1.2-2.4,2.5-2.5c10.1,0.2,20.1,0.3,30.2,0.5c1.4,0,2.5,1.2,2.5,2.5
					C380.2,90,379.1,91.1,377.8,91.1z M1314.9,90.8c-1.4,0-2.5-1.1-2.5-2.5s1.1-2.5,2.5-2.5c10.1-0.1,20.2-0.2,30.2-0.4l0,0
					c1.4,0,2.5,1.1,2.5,2.5s-1.1,2.5-2.5,2.5C1335.1,90.6,1325,90.7,1314.9,90.8L1314.9,90.8z M1375.3,90.1c-1.4,0-2.5-1.1-2.5-2.5
					s1.1-2.5,2.5-2.5c10.1-0.1,20.2-0.3,30.2-0.4l0,0c1.4,0,2.5,1.1,2.5,2.5s-1.1,2.5-2.5,2.5C1395.5,89.8,1385.5,89.9,1375.3,90.1
					C1375.4,90.1,1375.4,90.1,1375.3,90.1z M317.3,90L317.3,90c-10.1-0.2-20.2-0.4-30.3-0.6c-1.4,0-2.5-1.2-2.4-2.5
					c0-1.4,1.2-2.5,2.5-2.4c10.1,0.2,20.1,0.4,30.2,0.6c1.4,0,2.5,1.2,2.5,2.5C319.8,88.9,318.7,90,317.3,90z M1435.8,89.2
					c-1.4,0-2.5-1.1-2.5-2.5s1.1-2.5,2.5-2.5c10.1-0.1,20.2-0.3,30.2-0.4l0,0c1.4,0,2.5,1.1,2.5,2.5s-1.1,2.5-2.5,2.5
					C1456,89,1445.9,89.1,1435.8,89.2L1435.8,89.2z M256.9,88.8C256.8,88.8,256.8,88.8,256.9,88.8c-10.1-0.2-20.2-0.4-30.3-0.7
					c-1.4,0-2.5-1.2-2.4-2.6c0-1.4,1.2-2.5,2.6-2.4c10.1,0.2,20.1,0.5,30.2,0.7c1.4,0,2.5,1.2,2.4,2.6
					C259.3,87.7,258.2,88.8,256.9,88.8z M1496.3,88.4c-1.4,0-2.5-1.1-2.5-2.5s1.1-2.5,2.5-2.5l30.2-0.5c1.4,0,2.5,1.1,2.5,2.5
					s-1.1,2.5-2.5,2.5L1496.3,88.4L1496.3,88.4z M1556.7,87.5c-1.4,0-2.5-1.1-2.5-2.5s1.1-2.5,2.5-2.5l30.2-0.5
					c1.4,0,2.5,1.1,2.5,2.5s-1.1,2.5-2.5,2.5L1556.7,87.5L1556.7,87.5z M196.4,87.4L196.4,87.4c-10.1-0.2-20.2-0.5-30.3-0.8
					c-1.4,0-2.5-1.2-2.4-2.6c0-1.4,1.2-2.5,2.6-2.4c10.1,0.3,20.1,0.5,30.2,0.8c1.4,0,2.5,1.2,2.4,2.6
					C198.9,86.4,197.8,87.4,196.4,87.4z M1617.2,86.5c-1.4,0-2.5-1.1-2.5-2.5s1.1-2.5,2.5-2.5l30.2-0.5l0,0c1.4,0,2.5,1.1,2.5,2.5
					s-1.1,2.5-2.5,2.5L1617.2,86.5L1617.2,86.5z M136,85.9C135.9,85.9,135.9,85.9,136,85.9c-10.1-0.3-20.2-0.6-30.3-0.8
					c-1.4,0-2.5-1.2-2.4-2.6c0-1.4,1.2-2.5,2.6-2.4c10.1,0.3,20.1,0.6,30.2,0.8c1.4,0,2.5,1.2,2.4,2.6
					C138.4,84.8,137.3,85.9,136,85.9z M1677.6,85.5c-1.4,0-2.5-1.1-2.5-2.5s1.1-2.5,2.5-2.5l30.2-0.5c1.4,0,2.5,1.1,2.5,2.5
					s-1.1,2.5-2.5,2.5L1677.6,85.5C1677.7,85.5,1677.6,85.5,1677.6,85.5z M1738.1,84.5c-1.4,0-2.5-1.1-2.5-2.5s1.1-2.5,2.5-2.5
					l30.2-0.5c1.4,0,2.5,1.1,2.5,2.5s-1.1,2.5-2.5,2.5L1738.1,84.5L1738.1,84.5z M75.5,84.1L75.5,84.1c-10.2-0.3-20.2-0.6-30.3-0.9
					c-1.4,0-2.5-1.2-2.4-2.6c0-1.4,1.2-2.5,2.6-2.4c10.1,0.3,20.1,0.6,30.2,0.9c1.4,0,2.5,1.2,2.4,2.6C78,83.1,76.9,84.1,75.5,84.1z
					 M1798.5,83.5c-1.4,0-2.5-1.1-2.5-2.5s1.1-2.5,2.5-2.5l30.2-0.5c1.4,0,2.5,1.1,2.5,2.5s-1.1,2.5-2.5,2.5L1798.5,83.5
					C1798.6,83.5,1798.5,83.5,1798.5,83.5z M1859,82.5c-1.4,0-2.5-1.1-2.5-2.5s1.1-2.5,2.5-2.5l30.2-0.5c1.4,0,2.5,1.1,2.5,2.5
					s-1.1,2.5-2.5,2.5L1859,82.5L1859,82.5z M1919.4,81.4c-1.4,0-2.5-1.1-2.5-2.5s1.1-2.5,2.5-2.5l30.2-0.5l0,0
					c1.4,0,2.5,1.1,2.5,2.5s-1.1,2.5-2.5,2.5L1919.4,81.4C1919.5,81.4,1919.5,81.4,1919.4,81.4z M1979.9,80.4
					c-1.4,0-2.5-1.1-2.5-2.5s1.1-2.5,2.5-2.5l30.2-0.5c1.3,0,2.5,1.1,2.5,2.5s-1.1,2.5-2.5,2.5L1979.9,80.4L1979.9,80.4z
					 M3763.3,80.2L3763.3,80.2c-10.2-0.3-20.2-0.6-30.3-0.9c-1.4,0-2.5-1.2-2.4-2.6c0-1.4,1.2-2.5,2.6-2.4
					c10.1,0.3,20.1,0.6,30.2,0.9c1.4,0,2.5,1.2,2.4,2.6C3765.8,79.1,3764.7,80.2,3763.3,80.2z M2040.3,79.4c-1.4,0-2.5-1.1-2.5-2.5
					s1.1-2.5,2.5-2.5l30.2-0.5c1.4,0,2.5,1.1,2.5,2.5s-1.1,2.5-2.5,2.5L2040.3,79.4C2040.4,79.4,2040.4,79.4,2040.3,79.4z
					 M3702.9,78.4L3702.9,78.4c-10.1-0.3-20.2-0.6-30.3-0.8c-1.4,0-2.5-1.2-2.4-2.6c0-1.4,1.2-2.5,2.6-2.4
					c10.1,0.3,20.1,0.6,30.2,0.8c1.4,0,2.5,1.2,2.4,2.6C3705.4,77.3,3704.3,78.4,3702.9,78.4z M2100.8,78.4c-1.4,0-2.5-1.1-2.5-2.5
					s1.1-2.5,2.5-2.5l30.2-0.5c1.4,0,2.5,1.1,2.5,2.5s-1.1,2.5-2.5,2.5L2100.8,78.4L2100.8,78.4z M2161.3,77.4
					c-1.4,0-2.5-1.1-2.5-2.5s1.1-2.5,2.5-2.5l30.2-0.5c1.4,0,2.5,1.1,2.5,2.5s-1.1,2.5-2.5,2.5L2161.3,77.4L2161.3,77.4z
					 M3642.5,76.7C3642.4,76.7,3642.4,76.7,3642.5,76.7c-10.1-0.3-20.2-0.5-30.3-0.8c-1.4,0-2.5-1.2-2.4-2.6c0-1.4,1.2-2.5,2.6-2.4
					c10.1,0.2,20.2,0.5,30.2,0.8c1.4,0,2.5,1.2,2.4,2.6S3643.8,76.7,3642.5,76.7z M2221.7,76.4c-1.4,0-2.5-1.1-2.5-2.5
					s1.1-2.5,2.5-2.5c10.1-0.2,20.2-0.3,30.2-0.5l0,0c1.4,0,2.5,1.1,2.5,2.5s-1.1,2.5-2.5,2.5C2241.9,76.1,2231.8,76.3,2221.7,76.4
					L2221.7,76.4z M2282.2,75.5c-1.4,0-2.5-1.1-2.5-2.5s1.1-2.5,2.5-2.5c10.1-0.2,20.2-0.3,30.2-0.5c1.3,0,2.5,1.1,2.5,2.5
					s-1.1,2.5-2.5,2.5C2302.4,75.2,2292.3,75.3,2282.2,75.5L2282.2,75.5z M3582,75.3L3582,75.3c-10.1-0.2-20.2-0.5-30.3-0.7
					c-1.4,0-2.5-1.2-2.4-2.6c0-1.4,1.2-2.5,2.6-2.4c10.1,0.2,20.2,0.4,30.2,0.7c1.4,0,2.5,1.2,2.4,2.6
					C3584.5,74.2,3583.4,75.3,3582,75.3z M2342.6,74.6c-1.4,0-2.5-1.1-2.5-2.5s1.1-2.5,2.5-2.5c10.1-0.1,20.2-0.3,30.2-0.4
					c1.4,0,2.5,1.1,2.5,2.5s-1.1,2.5-2.5,2.5C2362.8,74.3,2352.7,74.5,2342.6,74.6L2342.6,74.6z M3521.6,74
					C3521.6,74,3521.5,74,3521.6,74c-10.1-0.2-20.2-0.4-30.3-0.6c-1.4,0-2.5-1.2-2.5-2.5c0-1.4,1.1-2.5,2.5-2.5l0,0
					c10.1,0.2,20.2,0.4,30.2,0.6c1.4,0,2.5,1.2,2.5,2.5C3524,72.9,3522.9,74,3521.6,74z M2403.1,73.7c-1.4,0-2.5-1.1-2.5-2.5
					s1.1-2.5,2.5-2.5c10.1-0.1,20.2-0.3,30.2-0.4c1.4,0,2.5,1.1,2.5,2.5s-1.1,2.5-2.5,2.5C2423.3,73.5,2413.2,73.6,2403.1,73.7
					L2403.1,73.7z M2463.5,73c-1.4,0-2.5-1.1-2.5-2.5s1.1-2.5,2.5-2.5c10.1-0.1,20.2-0.3,30.2-0.4l0,0c1.4,0,2.5,1.1,2.5,2.5
					s-1.1,2.5-2.5,2.5C2483.7,72.7,2473.6,72.8,2463.5,73C2463.6,73,2463.5,73,2463.5,73z M3461.1,72.9L3461.1,72.9
					c-10.1-0.2-20.2-0.3-30.3-0.5c-1.4,0-2.5-1.2-2.5-2.5c0-1.4,1.1-2.5,2.5-2.5l0,0c10.1,0.2,20.2,0.3,30.2,0.5
					c1.4,0,2.5,1.2,2.5,2.5C3463.6,71.8,3462.5,72.9,3461.1,72.9z M2524,72.2c-1.4,0-2.5-1.1-2.5-2.5s1.1-2.5,2.5-2.5
					c10.1-0.1,20.2-0.2,30.2-0.3c1.3,0,2.5,1.1,2.5,2.5s-1.1,2.5-2.5,2.5C2544.2,72,2534.1,72.1,2524,72.2L2524,72.2z M3400.7,71.9
					C3400.6,71.9,3400.6,71.9,3400.7,71.9c-10.1-0.1-20.2-0.3-30.3-0.4c-1.4,0-2.5-1.2-2.5-2.5c0-1.4,1.1-2.5,2.5-2.5l0,0
					c10.1,0.1,20.2,0.3,30.2,0.4c1.4,0,2.5,1.2,2.5,2.5C3403.1,70.8,3402,71.9,3400.7,71.9z M2584.4,71.5c-1.4,0-2.5-1.1-2.5-2.5
					s1.1-2.5,2.5-2.5c10.1-0.1,20.2-0.2,30.2-0.3l0,0c1.4,0,2.5,1.1,2.5,2.5s-1.1,2.5-2.5,2.5C2604.6,71.3,2594.5,71.4,2584.4,71.5
					C2584.5,71.5,2584.5,71.5,2584.4,71.5z M3340.2,71.1L3340.2,71.1c-10.1-0.1-20.2-0.2-30.3-0.3c-1.4,0-2.5-1.1-2.5-2.5
					s1.1-2.5,2.5-2.5l0,0c10.1,0.1,20.2,0.2,30.2,0.3c1.4,0,2.5,1.1,2.5,2.5C3342.7,70,3341.6,71.1,3340.2,71.1z M2644.9,70.9
					c-1.4,0-2.5-1.1-2.5-2.5s1.1-2.5,2.5-2.5c10.1-0.1,20.2-0.2,30.2-0.3l0,0c1.4,0,2.5,1.1,2.5,2.5s-1.1,2.5-2.5,2.5
					C2665.1,70.8,2655,70.8,2644.9,70.9L2644.9,70.9z M3279.7,70.4L3279.7,70.4c-10.1-0.1-20.2-0.2-30.3-0.3c-1.4,0-2.5-1.1-2.5-2.5
					s1.1-2.5,2.5-2.5l0,0c10.1,0.1,20.2,0.2,30.2,0.3c1.4,0,2.5,1.1,2.5,2.5C3282.2,69.3,3281.1,70.4,3279.7,70.4z M2705.4,70.4
					c-1.4,0-2.5-1.1-2.5-2.5s1.1-2.5,2.5-2.5c10.1-0.1,20.2-0.2,30.2-0.2l0,0c1.4,0,2.5,1.1,2.5,2.5s-1.1,2.5-2.5,2.5
					C2725.5,70.3,2715.5,70.3,2705.4,70.4L2705.4,70.4z M2765.8,70c-1.4,0-2.5-1.1-2.5-2.5s1.1-2.5,2.5-2.5
					c10.1-0.1,20.2-0.1,30.2-0.2l0,0c1.4,0,2.5,1.1,2.5,2.5s-1.1,2.5-2.5,2.5C2786,69.8,2775.9,69.9,2765.8,70L2765.8,70z
					 M3219.3,69.9L3219.3,69.9c-10.1-0.1-20.2-0.1-30.2-0.2c-1.4,0-2.5-1.1-2.5-2.5s1.1-2.5,2.5-2.5l0,0c10.1,0.1,20.2,0.1,30.2,0.2
					c1.4,0,2.5,1.1,2.5,2.5S3220.7,69.9,3219.3,69.9z M2826.3,69.6c-1.4,0-2.5-1.1-2.5-2.5s1.1-2.5,2.5-2.5
					c10.1-0.1,20.2-0.1,30.2-0.1l0,0c1.4,0,2.5,1.1,2.5,2.5s-1.1,2.5-2.5,2.5C2846.4,69.5,2836.4,69.6,2826.3,69.6L2826.3,69.6z
					 M3158.8,69.5L3158.8,69.5c-10.1-0.1-20.2-0.1-30.2-0.1c-1.4,0-2.5-1.1-2.5-2.5s1.1-2.5,2.5-2.5l0,0c10.1,0,20.2,0.1,30.2,0.1
					c1.4,0,2.5,1.1,2.5,2.5S3160.2,69.5,3158.8,69.5z M2886.7,69.4c-1.4,0-2.5-1.1-2.5-2.5s1.1-2.5,2.5-2.5
					c10.1,0,20.2-0.1,30.2-0.1l0,0c1.4,0,2.5,1.1,2.5,2.5s-1.1,2.5-2.5,2.5C2906.9,69.3,2896.8,69.3,2886.7,69.4
					C2886.8,69.4,2886.7,69.4,2886.7,69.4z M3098.4,69.3L3098.4,69.3c-10.1,0-20.2-0.1-30.2-0.1c-1.4,0-2.5-1.1-2.5-2.5
					s1.1-2.5,2.5-2.5l0,0c10.1,0,20.2,0,30.2,0.1c1.4,0,2.5,1.1,2.5,2.5C3100.9,68.2,3099.7,69.3,3098.4,69.3z M2947.2,69.2
					c-1.4,0-2.5-1.1-2.5-2.5s1.1-2.5,2.5-2.5c10.1,0,20.2,0,30.2,0c1.4,0,2.5,1.1,2.5,2.5s-1.1,2.5-2.5,2.5
					C2967.4,69.2,2957.3,69.2,2947.2,69.2L2947.2,69.2z M3037.9,69.2L3037.9,69.2c-10.1,0-20.2,0-30.2,0c-1.4,0-2.5-1.1-2.5-2.5
					s1.1-2.5,2.5-2.5c10.1,0,20.2,0,30.2,0c1.4,0,2.5,1.1,2.5,2.5S3039.3,69.2,3037.9,69.2z"/>
			</g>
			<g>
				<path class="st0" d="M15.1,81.2C15.1,81.2,15,81.2,15.1,81.2C10,81,5,80.9,0,80.7c-1.4,0-2.5-1.2-2.4-2.6c0-1.4,1.2-2.5,2.6-2.4
					c5,0.2,10,0.3,15,0.5c1.4,0,2.5,1.2,2.4,2.6S16.4,81.2,15.1,81.2z"/>
			</g>
		</g>
	</g>
	<g>
		<path class="st0" d="M805.3,52.7c-268.8,0-538-3.3-805.3-12.5l0.2-5c634.7,21.7,1280,10.7,1904.1,0
			c361.3-6.2,729.7-12.5,1099-12.5c268.8,0,537.9,3.3,805.3,12.5l-0.2,5c-267.2-9.2-536.5-12.5-805.1-12.5
			c-369.3,0-737.6,6.3-1098.9,12.5C1543.1,46.3,1174.7,52.7,805.3,52.7z"/>
	</g>
</g>
</svg>
