<?xml version="1.0" encoding="UTF-8"?>
<svg width="92px" height="94px" viewBox="0 0 92 94" version="1.1" xmlns="http://www.w3.org/2000/svg" xmlns:xlink="http://www.w3.org/1999/xlink">
    <!-- Generator: Sketch 43.1 (39012) - http://www.bohemiancoding.com/sketch -->
    <title>Group 39</title>
    <desc>Created with Sketch.</desc>
    <defs></defs>
    <g id="Page-1" stroke="none" stroke-width="1" fill="none" fill-rule="evenodd">
        <g id="Landningssida-Länsförsäkringar" transform="translate(-1181.000000, -229.000000)">
            <g id="Bitmap" transform="translate(334.000000, 137.000000)">
                <g id="Group-39" transform="translate(847.000000, 92.000000)">
                    <g id="Group-40">
                        <path d="M46,64.4147269 C55.6608348,64.4147269 63.4910714,56.5936182 63.4910714,46.9475424 C63.4910714,37.3014666 55.6608348,29.4803579 46,29.4803579 C36.3391652,29.4803579 28.5089286,37.3014666 28.5089286,46.9475424 C28.5089286,56.5936182 36.3391652,64.4147269 46,64.4147269 Z M46,67.4147269 C34.6830937,67.4147269 25.5089286,58.2512563 25.5089286,46.9475424 C25.5089286,35.6438285 34.6830937,26.4803579 46,26.4803579 C57.3169063,26.4803579 66.4910714,35.6438285 66.4910714,46.9475424 C66.4910714,58.2512563 57.3169063,67.4147269 46,67.4147269 Z" id="Oval-4" fill="#005CA9" fill-rule="nonzero"></path>
                        <path d="M48,17.6866997 L48,2 C48,1.17157288 47.3284271,0.5 46.5,0.5 C45.6715729,0.5 45,1.17157288 45,2 L45,17.6866997 C45,18.5151268 45.6715729,19.1866997 46.5,19.1866997 C47.3284271,19.1866997 48,18.5151268 48,17.6866997 Z" id="Path-7" fill="#005CA9" fill-rule="nonzero"></path>
                        <path d="M48,91.5290908 L48,75.8423911 C48,75.013964 47.3284271,74.3423911 46.5,74.3423911 C45.6715729,74.3423911 45,75.013964 45,75.8423911 L45,91.5290908 C45,92.3575179 45.6715729,93.0290908 46.5,93.0290908 C47.3284271,93.0290908 48,92.3575179 48,91.5290908 Z" id="Path-7-Copy" fill="#005CA9" fill-rule="nonzero"></path>
                        <path d="M17.3433498,45.4475424 L1.65665015,45.4475424 C0.828223028,45.4475424 0.156650153,46.1191153 0.156650153,46.9475424 C0.156650153,47.7759695 0.828223028,48.4475424 1.65665015,48.4475424 L17.3433498,48.4475424 C18.171777,48.4475424 18.8433498,47.7759695 18.8433498,46.9475424 C18.8433498,46.1191153 18.171777,45.4475424 17.3433498,45.4475424 Z" id="Path-7" fill="#005CA9" fill-rule="nonzero"></path>
                        <path d="M90.3433498,45.4475424 L74.6566502,45.4475424 C73.828223,45.4475424 73.1566502,46.1191153 73.1566502,46.9475424 C73.1566502,47.7759695 73.828223,48.4475424 74.6566502,48.4475424 L90.3433498,48.4475424 C91.171777,48.4475424 91.8433498,47.7759695 91.8433498,46.9475424 C91.8433498,46.1191153 91.171777,45.4475424 90.3433498,45.4475424 Z" id="Path-7-Copy" fill="#E20714" fill-rule="nonzero"></path>
                        <path d="M19.5,28.5542661 L19.5,12.8675664" id="Path-7" stroke="#005CA9" stroke-width="3" stroke-linecap="round" transform="translate(19.500000, 20.710916) rotate(-45.000000) translate(-19.500000, -20.710916) "></path>
                        <path d="M72.5,80.7687216 L72.5,65.0820219" id="Path-7-Copy" stroke="#005CA9" stroke-width="3" stroke-linecap="round" transform="translate(72.500000, 72.925372) rotate(-45.000000) translate(-72.500000, -72.925372) "></path>
                        <path d="M19.5,81.0275184 L19.5,65.3408187" id="Path-7" stroke="#005CA9" stroke-width="3" stroke-linecap="round" transform="translate(19.500000, 73.184169) rotate(-135.000000) translate(-19.500000, -73.184169) "></path>
                        <path d="M72.5,28.8130629 L72.5,13.1263632" id="Path-7-Copy" stroke="#005CA9" stroke-width="3" stroke-linecap="round" transform="translate(72.500000, 20.969713) rotate(-135.000000) translate(-72.500000, -20.969713) "></path>
                        <path d="M26.106746,25.1963419 L15.0145743,14.1041702 C14.4287879,13.5183838 13.4790404,13.5183838 12.893254,14.1041702 C12.3074675,14.6899566 12.3074675,15.6397041 12.893254,16.2254905 L23.9854257,27.3176623 C24.5712121,27.9034487 25.5209596,27.9034487 26.106746,27.3176623 C26.6925325,26.7318758 26.6925325,25.7821284 26.106746,25.1963419 Z" id="Path-7" fill="#E20714" fill-rule="nonzero"></path>
                        <path d="M79.106746,77.4107974 L68.0145743,66.3186257 C67.4287879,65.7328393 66.4790404,65.7328393 65.893254,66.3186257 C65.3074675,66.9044121 65.3074675,67.8541596 65.893254,68.439946 L76.9854257,79.5321178 C77.5712121,80.1179042 78.5209596,80.1179042 79.106746,79.5321178 C79.6925325,78.9463313 79.6925325,77.9965839 79.106746,77.4107974 Z" id="Path-7-Copy" fill="#005CA9" fill-rule="nonzero"></path>
                        <path d="M23.9854257,66.5774225 L12.893254,77.6695943 C12.3074675,78.2553807 12.3074675,79.2051282 12.893254,79.7909146 C13.4790404,80.3767011 14.4287879,80.3767011 15.0145743,79.7909146 L26.106746,68.6987429 C26.6925325,68.1129565 26.6925325,67.163209 26.106746,66.5774225 C25.5209596,65.9916361 24.5712121,65.9916361 23.9854257,66.5774225 Z" id="Path-7" fill="#005CA9" fill-rule="nonzero"></path>
                        <path d="M76.9854257,14.3629671 L65.893254,25.4551388 C65.3074675,26.0409252 65.3074675,26.9906727 65.893254,27.5764591 C66.4790404,28.1622456 67.4287879,28.1622456 68.0145743,27.5764591 L79.106746,16.4842874 C79.6925325,15.898501 79.6925325,14.9487535 79.106746,14.3629671 C78.5209596,13.7771806 77.5712121,13.7771806 76.9854257,14.3629671 Z" id="Path-7-Copy" fill="#005CA9" fill-rule="nonzero"></path>
                    </g>
                </g>
            </g>
        </g>
    </g>
</svg>