<?xml version="1.0" encoding="UTF-8"?>
<svg width="88px" height="88px" viewBox="0 0 88 88" version="1.1" xmlns="http://www.w3.org/2000/svg" xmlns:xlink="http://www.w3.org/1999/xlink">
    <!-- Generator: Sketch 43.1 (39012) - http://www.bohemiancoding.com/sketch -->
    <title>Group 13</title>
    <desc>Created with Sketch.</desc>
    <defs></defs>
    <g id="Page-1" stroke="none" stroke-width="1" fill="none" fill-rule="evenodd">
        <g id="Landningssida-Länsförsäkringar-Copy" transform="translate(-728.000000, -4824.000000)">
            <g id="Group-43" transform="translate(0.000000, 4529.000000)">
                <g id="Group-13" transform="translate(728.000000, 295.000000)">
                    <path d="M55.6908482,29.5 L61.7377232,29.5 L61.7377232,47.5 L55.6908482,47.5 L55.6908482,29.5 Z M49.7142857,29.5 C50.5111647,29.5 51.2142827,29.8046845 51.8236607,30.4140625 C52.4330388,31.0234405 52.7377232,31.7265585 52.7377232,32.5234375 L52.7377232,47.5 C52.7377232,48.296879 52.4330388,48.999997 51.8236607,49.609375 L41.9799107,59.5234375 L40.3627232,57.90625 C39.9408461,57.4843729 39.7299107,56.968753 39.7299107,56.359375 L39.7299107,55.8671875 L41.2064732,48.9765625 L31.7142857,48.9765625 C30.9174067,48.9765625 30.2142888,48.6835967 29.6049107,48.0976562 C28.9955327,47.5117158 28.6908482,46.8203165 28.6908482,46.0234375 L28.7611607,45.8828125 L28.6908482,45.8828125 L28.6908482,43 C28.6908482,42.6249981 28.76116,42.2500019 28.9017857,41.875 L33.4720982,31.328125 C33.9408506,30.1093689 34.8549039,29.5 36.2142857,29.5 L49.7142857,29.5 Z" id="" stroke="#005CA9" stroke-width="3" fill-opacity="0" fill="#000000"></path>
                    <path d="M44,85 C66.6436747,85 85,66.6436747 85,44 C85,21.3563253 66.6436747,3 44,3 C21.3563253,3 3,21.3563253 3,44 C3,66.6436747 21.3563253,85 44,85 Z M44,88 C19.699471,88 0,68.300529 0,44 C0,19.699471 19.699471,0 44,0 C68.300529,0 88,19.699471 88,44 C88,68.300529 68.300529,88 44,88 Z" id="Oval-7-Copy" fill="#005CA9" fill-rule="nonzero"></path>
                </g>
            </g>
        </g>
    </g>
</svg>