<?xml version="1.0" encoding="UTF-8"?>
<svg width="406px" height="216px" viewBox="0 0 406 216" version="1.1" xmlns="http://www.w3.org/2000/svg" xmlns:xlink="http://www.w3.org/1999/xlink">
    <!-- Generator: Sketch 43.1 (39012) - http://www.bohemiancoding.com/sketch -->
    <title>Group 12</title>
    <desc>Created with Sketch.</desc>
    <defs>
        <filter x="-18.8%" y="-23.8%" width="137.9%" height="195.2%" filterUnits="objectBoundingBox" id="filter-1">
            <feOffset dx="0" dy="40" in="SourceAlpha" result="shadowOffsetOuter1"></feOffset>
            <feGaussianBlur stdDeviation="15" in="shadowOffsetOuter1" result="shadowBlurOuter1"></feGaussianBlur>
            <feColorMatrix values="0 0 0 0 0   0 0 0 0 0   0 0 0 0 0  0 0 0 0.5 0" type="matrix" in="shadowBlurOuter1" result="shadowMatrixOuter1"></feColorMatrix>
            <feMerge>
                <feMergeNode in="shadowMatrixOuter1"></feMergeNode>
                <feMergeNode in="SourceGraphic"></feMergeNode>
            </feMerge>
        </filter>
    </defs>
    <g id="Page-1" stroke="none" stroke-width="1" fill="none" fill-rule="evenodd">
        <g id="Landningssida-Länsförsäkringar-Copy" transform="translate(-660.000000, -3095.000000)">
            <g id="Group-17" transform="translate(-1.000000, 2638.000000)">
                <g id="Group-12" transform="translate(691.000000, 457.000000)">
                    <g id="Group-10" transform="translate(-0.000000, 0.000000)">
                        <g id="Group-7-Copy" filter="url(#filter-1)" transform="translate(173.000000, 73.500000) scale(-1, 1) translate(-173.000000, -73.500000) translate(-0.000000, 0.000000)">
                            <rect id="Rectangle-2" fill="#F7F6F0" x="2.27373675e-13" y="0" width="346" height="146.360001"></rect>
                            <path d="M26.608,20.2 L23.276,20.2 L23.276,22.006 L24.62,22.006 L24.62,26.71 C24.62,27.718 24.13,28.278 23.402,28.278 C22.632,28.278 22.128,27.648 22.128,26.71 L22.128,25.562 L20.28,25.562 L20.28,26.752 C20.28,28.782 21.54,30.14 23.416,30.14 C25.334,30.14 26.608,28.852 26.608,26.752 L26.608,20.2 Z M33.762,23.252 L31.914,23.252 L31.914,27.116 C31.914,28.124 31.438,28.6 30.864,28.6 C30.248,28.6 29.996,28.068 29.996,27.256 L29.996,23.252 L28.134,23.252 L28.134,27.256 C28.134,29.034 28.792,30.14 30.318,30.14 C31.004,30.14 31.69,29.874 32.124,29.02 C32.124,30.322 33.594,30.224 34.378,30 L34.378,28.782 C33.888,28.824 33.762,28.6 33.762,27.97 L33.762,23.252 Z M35.106,27.9 C35.134,29.244 36.072,30.14 37.808,30.14 C39.376,30.14 40.412,29.286 40.412,27.998 C40.412,26.276 39.04,26.038 37.766,25.856 C37.444,25.814 37.01,25.702 37.024,25.198 C37.024,24.806 37.318,24.582 37.766,24.582 C38.228,24.582 38.55,24.848 38.578,25.24 L40.216,25.24 C40.286,23.812 39.068,23.112 37.724,23.112 C36.226,23.112 35.218,23.952 35.218,25.226 C35.218,26.766 36.702,27.102 37.836,27.298 C38.2,27.354 38.55,27.564 38.55,28.026 C38.55,28.474 38.214,28.726 37.724,28.726 C37.262,28.726 36.94,28.39 36.926,27.9 L35.106,27.9 Z M45.606,23.252 L43.8,23.252 L43.8,21.166 L42.246,21.166 L42.05,23.252 L40.944,23.252 L40.944,24.596 L41.994,24.708 L41.994,27.368 C41.994,29.398 43.016,30.14 44.332,30.14 C44.808,30.14 45.326,30.042 45.858,29.874 L45.69,28.446 C45.382,28.572 45.102,28.614 44.822,28.6 C44.262,28.572 43.8,28.264 43.8,27.326 L43.8,24.708 L45.606,24.708 L45.606,23.252 Z M53.628,30 L55.49,30 L55.49,25.954 C55.49,24.274 54.944,23.112 53.306,23.112 C52.648,23.112 51.892,23.434 51.5,24.148 C51.472,22.93 49.89,23.042 49.106,23.238 L49.106,24.456 C49.638,24.456 49.736,24.666 49.736,25.338 L49.736,30 L51.584,30 L51.584,25.996 C51.584,25.044 52.116,24.652 52.676,24.652 C53.18,24.652 53.628,25.03 53.628,25.954 L53.628,30 Z M62.462,23.252 L60.614,23.252 L60.614,27.116 C60.614,28.124 60.138,28.6 59.564,28.6 C58.948,28.6 58.696,28.068 58.696,27.256 L58.696,23.252 L56.834,23.252 L56.834,27.256 C56.834,29.034 57.492,30.14 59.018,30.14 C59.704,30.14 60.39,29.874 60.824,29.02 C60.824,30.322 62.294,30.224 63.078,30 L63.078,28.782 C62.588,28.824 62.462,28.6 62.462,27.97 L62.462,23.252 Z" id="Just-nu" fill="#000000" opacity="0.319999993" transform="translate(41.679000, 25.170000) scale(-1, 1) translate(-41.679000, -25.170000) "></path>
                        </g>
                        <path d="M30.188,29.4 L34.22,29.4 C37.406,29.4 39.53,31.902 39.53,35.664 C39.53,39.462 37.406,42 34.22,42 L30.188,42 L30.188,29.4 Z M32.726,39.57 L34.184,39.57 C35.876,39.57 36.992,38.022 36.992,35.682 C36.992,33.378 35.876,31.83 34.184,31.83 L32.726,31.83 L32.726,39.57 Z M48.26,33.324 L45.884,33.324 L45.884,38.292 C45.884,39.588 45.272,40.2 44.534,40.2 C43.742,40.2 43.418,39.516 43.418,38.472 L43.418,33.324 L41.024,33.324 L41.024,38.472 C41.024,40.758 41.87,42.18 43.832,42.18 C44.714,42.18 45.596,41.838 46.154,40.74 C46.154,42.414 48.044,42.288 49.052,42 L49.052,40.434 C48.422,40.488 48.26,40.2 48.26,39.39 L48.26,33.324 Z M37.244,59.096 L37.244,65 L38.666,65 L38.666,52.4 L37.244,52.4 L37.244,57.71 L31.808,57.71 L31.808,52.4 L30.386,52.4 L30.386,65 L31.808,65 L31.808,59.096 L37.244,59.096 Z M44.534,56.144 C47.018,56.144 48.242,57.944 47.81,60.806 L42.032,60.806 C41.978,62.84 43.274,64.01 44.84,64.01 C45.704,64.01 46.532,63.794 47.396,63.38 L47.576,64.442 C46.712,64.928 45.758,65.18 44.858,65.18 C42.41,65.18 40.664,63.47 40.736,60.428 C40.808,57.692 42.518,56.144 44.534,56.144 Z M44.534,57.26 C43.256,57.26 42.302,58.16 42.104,59.726 L46.694,59.726 C46.766,57.944 45.776,57.26 44.534,57.26 Z M49.502,53.462 C49.502,54.074 49.934,54.362 50.348,54.362 C50.762,54.362 51.176,54.074 51.176,53.462 C51.176,52.868 50.762,52.58 50.33,52.58 C49.916,52.58 49.502,52.868 49.502,53.462 Z M51.014,56.324 L51.014,65.954 C51.014,68.276 50.348,69.482 48.764,69.5 C48.494,69.5 48.17,69.464 47.846,69.392 L47.882,68.294 C48.098,68.33 48.278,68.366 48.44,68.366 C49.52,68.366 49.7,67.43 49.7,65.936 L49.7,56.324 L51.014,56.324 Z M53.408,52.4 L53.516,62.354 L54.794,62.354 L54.866,52.4 L53.408,52.4 Z M54.128,65.234 C54.596,65.234 54.974,64.892 54.974,64.406 C54.974,63.902 54.596,63.578 54.128,63.578 C53.678,63.578 53.318,63.902 53.318,64.406 C53.318,64.892 53.678,65.234 54.128,65.234 Z M68.438,52.4 L64.496,52.4 L64.496,53.732 L67.016,53.732 L67.016,60.752 C67.016,62.714 65.936,63.812 64.406,63.812 C62.876,63.812 61.814,62.75 61.814,60.752 L61.814,59.456 L60.482,59.456 L60.482,60.77 C60.482,63.506 62.156,65.18 64.406,65.18 C66.674,65.18 68.438,63.56 68.438,60.77 L68.438,52.4 Z M75.764,63.47 C75.242,64.676 74.018,65.18 72.92,65.18 C71.372,65.18 70.292,64.1 70.292,62.462 C70.292,60.464 71.66,59.69 73.244,59.69 C74.018,59.69 74.828,59.852 75.566,60.176 L75.566,59.114 C75.566,57.656 74.396,57.278 73.406,57.278 C72.524,57.278 71.678,57.476 71.084,57.908 L70.832,56.846 C71.552,56.414 72.56,56.144 73.532,56.144 C75.242,56.144 76.808,56.882 76.808,59.15 L76.808,62.804 C76.808,63.722 76.88,64.316 77.762,64.172 L77.78,65.09 C76.574,65.324 75.782,65.054 75.764,63.47 Z M75.566,62.102 L75.566,61.238 C74.918,60.914 74.216,60.77 73.55,60.77 C72.488,60.77 71.606,61.184 71.606,62.408 C71.606,63.344 72.272,63.974 73.172,63.974 C74.108,63.974 75.332,63.398 75.566,62.102 Z M84.44,65.702 L84.44,64.352 C83.648,65 82.856,65.18 82.118,65.18 C80.048,65.18 78.68,63.434 78.68,60.698 C78.68,57.782 80.3,56.144 82.748,56.144 C83.81,56.144 84.8,56.468 85.718,56.954 L85.718,65.594 C85.718,67.934 84.314,69.5 82.226,69.5 C81.236,69.5 80.156,69.158 79.202,68.528 L79.418,67.412 C80.282,67.952 81.308,68.33 82.208,68.312 C83.54,68.294 84.44,67.25 84.44,65.702 Z M84.422,63.128 L84.422,57.764 C83.846,57.494 83.27,57.35 82.694,57.35 C81.092,57.35 80.012,58.502 80.012,60.68 C80.012,62.804 80.948,63.974 82.37,63.974 C83.036,63.974 83.738,63.74 84.422,63.128 Z M98.516,65 L98.516,64.838 L96.122,60.59 C97.382,59.96 98.246,58.628 98.156,56.324 L96.896,56.324 C96.896,58.826 96.068,59.906 94.088,59.906 L93.17,59.906 L93.17,51.842 L91.838,51.842 L91.838,65 L93.17,65 L93.17,61.058 L94.07,61.058 C94.376,61.058 94.664,61.04 94.952,60.986 L97.148,65 L98.516,65 Z M101.99,54.2 C102.422,54.2 102.764,53.894 102.764,53.444 C102.764,52.976 102.404,52.688 101.99,52.688 C101.576,52.688 101.252,52.994 101.252,53.444 C101.252,53.912 101.594,54.2 101.99,54.2 Z M104.978,54.2 C105.374,54.2 105.734,53.894 105.734,53.444 C105.734,52.976 105.374,52.688 104.978,52.688 C104.528,52.688 104.222,52.994 104.222,53.444 C104.222,53.912 104.564,54.2 104.978,54.2 Z M107.354,60.644 C107.354,63.362 105.806,65.18 103.466,65.18 C101.126,65.18 99.578,63.362 99.578,60.644 C99.578,57.926 101.126,56.144 103.448,56.144 C105.788,56.144 107.354,57.926 107.354,60.644 Z M100.91,60.644 C100.91,62.642 101.936,63.992 103.466,63.992 C104.996,63.992 106.022,62.642 106.022,60.644 C106.022,58.664 104.996,57.35 103.448,57.35 C101.918,57.35 100.91,58.664 100.91,60.644 Z M110.63,57.584 C110.576,56.252 109.658,56.09 108.524,56.324 L108.542,57.296 C109.388,57.206 109.406,57.674 109.406,58.466 L109.406,65 L110.72,65 L110.72,59.816 C110.72,58.358 111.674,57.404 112.7,57.404 C113.258,57.404 113.708,57.566 114.176,57.926 L114.734,56.792 C114.23,56.36 113.492,56.144 112.844,56.144 C111.89,56.144 111.134,56.594 110.63,57.584 Z M146.918,53.462 C146.918,54.074 147.35,54.362 147.764,54.362 C148.178,54.362 148.592,54.074 148.592,53.462 C148.592,52.868 148.178,52.58 147.746,52.58 C147.332,52.58 146.918,52.868 146.918,53.462 Z M148.43,56.324 L147.116,56.324 L147.116,65.936 C147.116,67.43 146.936,68.366 145.856,68.366 C145.694,68.366 145.514,68.33 145.298,68.294 L145.262,69.392 C145.586,69.464 145.91,69.5 146.18,69.5 C147.764,69.482 148.43,68.276 148.43,65.954 L148.43,56.324 Z M157.232,56.324 L155.9,56.324 L155.9,61.274 C155.9,62.912 155.072,64.01 153.812,64.01 C152.696,64.01 151.994,63.11 151.994,61.382 L151.994,56.324 L150.644,56.324 L150.644,61.382 C150.644,63.83 151.868,65.18 153.578,65.18 C154.46,65.18 155.324,64.874 156.026,63.83 C156.026,65.288 157.07,65.216 158.096,64.964 L158.078,63.992 C157.412,64.262 157.232,63.956 157.232,62.678 L157.232,56.324 Z M159.194,62.516 C159.32,64.496 160.886,65.18 162.506,65.18 C164.432,65.126 165.71,64.082 165.728,62.552 C165.764,60.5 164.18,60.212 162.632,59.978 C161.336,59.744 160.652,59.51 160.652,58.664 C160.652,57.818 161.354,57.26 162.47,57.26 C163.37,57.26 164.306,57.692 164.306,58.628 L165.548,58.628 C165.602,56.954 164.036,56.144 162.47,56.144 C160.598,56.144 159.392,57.152 159.392,58.7 C159.392,60.5 161.048,60.878 162.524,61.076 C163.766,61.31 164.468,61.562 164.468,62.552 C164.468,63.47 163.64,64.046 162.488,64.046 C161.552,64.046 160.562,63.614 160.49,62.516 L159.194,62.516 Z M169.418,56.324 L169.418,53.66 L168.284,53.66 L168.14,56.324 L166.538,56.324 L166.538,57.26 L168.086,57.35 L168.086,61.652 C168.086,64.208 169.094,65.18 170.66,65.18 C171.2,65.18 171.866,65.054 172.514,64.766 L172.28,63.686 C171.812,63.902 171.398,64.01 171.02,64.01 C170.012,64.01 169.418,63.326 169.418,61.616 L169.418,57.35 L172.082,57.35 L172.082,56.324 L169.418,56.324 Z M183.332,65 L184.664,65 L184.664,59.744 C184.664,57.386 183.656,56.144 181.73,56.144 C180.614,56.144 179.642,56.738 179.102,57.62 C179.102,56.036 177.986,56.162 177.068,56.306 L177.086,57.422 C177.842,57.332 177.914,57.638 177.914,58.808 L177.914,65 L179.246,65 L179.246,59.798 C179.246,58.34 180.164,57.314 181.352,57.314 C182.648,57.314 183.332,58.178 183.332,59.852 L183.332,65 Z M193.358,56.324 L192.026,56.324 L192.026,61.274 C192.026,62.912 191.198,64.01 189.938,64.01 C188.822,64.01 188.12,63.11 188.12,61.382 L188.12,56.324 L186.77,56.324 L186.77,61.382 C186.77,63.83 187.994,65.18 189.704,65.18 C190.586,65.18 191.45,64.874 192.152,63.83 C192.152,65.288 193.196,65.216 194.222,64.964 L194.204,63.992 C193.538,64.262 193.358,63.956 193.358,62.678 L193.358,56.324 Z M209.9,65 L211.268,65 L211.268,59.834 C211.268,57.404 210.404,56.144 208.73,56.144 C207.524,56.144 206.39,56.738 205.94,58.016 C205.652,56.792 204.914,56.144 203.672,56.144 C202.628,56.144 201.674,56.54 201.17,57.692 C201.188,55.982 200.144,56.072 199.118,56.27 L199.136,57.278 C199.892,57.188 199.964,57.566 199.964,58.718 L199.964,65 L201.296,65 L201.296,59.96 C201.296,58.376 202.07,57.314 203.276,57.314 C204.5,57.314 204.932,58.448 204.932,59.906 L204.932,65 L206.264,65 L206.264,59.942 C206.264,58.394 207.146,57.314 208.298,57.314 C209.342,57.314 209.9,58.178 209.9,59.834 L209.9,65 Z M216.812,56.144 C219.296,56.144 220.52,57.944 220.088,60.806 L214.31,60.806 C214.256,62.84 215.552,64.01 217.118,64.01 C217.982,64.01 218.81,63.794 219.674,63.38 L219.854,64.442 C218.99,64.928 218.036,65.18 217.136,65.18 C214.688,65.18 212.942,63.47 213.014,60.428 C213.086,57.692 214.796,56.144 216.812,56.144 Z M216.812,57.26 C215.534,57.26 214.58,58.16 214.382,59.726 L218.972,59.726 C219.044,57.944 218.054,57.26 216.812,57.26 Z M227.594,65 L228.926,65 L228.926,59.744 C228.926,57.386 227.918,56.144 225.992,56.144 C224.876,56.144 223.904,56.738 223.364,57.62 C223.364,56.036 222.248,56.162 221.33,56.306 L221.348,57.422 C222.104,57.332 222.176,57.638 222.176,58.808 L222.176,65 L223.508,65 L223.508,59.798 C223.508,58.34 224.426,57.314 225.614,57.314 C226.91,57.314 227.594,58.178 227.594,59.852 L227.594,65 Z M234.47,62.516 C234.596,64.496 236.162,65.18 237.782,65.18 C239.708,65.126 240.986,64.082 241.004,62.552 C241.04,60.5 239.456,60.212 237.908,59.978 C236.612,59.744 235.928,59.51 235.928,58.664 C235.928,57.818 236.63,57.26 237.746,57.26 C238.646,57.26 239.582,57.692 239.582,58.628 L240.824,58.628 C240.878,56.954 239.312,56.144 237.746,56.144 C235.874,56.144 234.668,57.152 234.668,58.7 C234.668,60.5 236.324,60.878 237.8,61.076 C239.042,61.31 239.744,61.562 239.744,62.552 C239.744,63.47 238.916,64.046 237.764,64.046 C236.828,64.046 235.838,63.614 235.766,62.516 L234.47,62.516 Z M241.994,56.486 L245.522,65.18 L246.08,65.18 L249.59,56.486 L249.59,56.324 L248.15,56.324 L246.746,60.032 L245.81,62.678 L244.874,60.05 L243.434,56.324 L241.994,56.324 L241.994,56.486 Z M255.98,63.47 C255.458,64.676 254.234,65.18 253.136,65.18 C251.588,65.18 250.508,64.1 250.508,62.462 C250.508,60.464 251.876,59.69 253.46,59.69 C254.234,59.69 255.044,59.852 255.782,60.176 L255.782,59.114 C255.782,57.656 254.612,57.278 253.622,57.278 C252.74,57.278 251.894,57.476 251.3,57.908 L251.048,56.846 C251.768,56.414 252.776,56.144 253.748,56.144 C255.458,56.144 257.024,56.882 257.024,59.15 L257.024,62.804 C257.024,63.722 257.096,64.316 257.978,64.172 L257.996,65.09 C256.79,65.324 255.998,65.054 255.98,63.47 Z M255.782,62.102 L255.782,61.238 C255.134,60.914 254.432,60.77 253.766,60.77 C252.704,60.77 251.822,61.184 251.822,62.408 C251.822,63.344 252.488,63.974 253.388,63.974 C254.324,63.974 255.548,63.398 255.782,62.102 Z M260.804,57.584 C260.75,56.252 259.832,56.09 258.698,56.324 L258.716,57.296 C259.562,57.206 259.58,57.674 259.58,58.466 L259.58,65 L260.894,65 L260.894,59.816 C260.894,58.358 261.848,57.404 262.874,57.404 C263.432,57.404 263.882,57.566 264.35,57.926 L264.908,56.792 C264.404,56.36 263.666,56.144 263.018,56.144 C262.064,56.144 261.308,56.594 260.804,57.584 Z M271.046,63.47 C270.524,64.676 269.3,65.18 268.202,65.18 C266.654,65.18 265.574,64.1 265.574,62.462 C265.574,60.464 266.942,59.69 268.526,59.69 C269.3,59.69 270.11,59.852 270.848,60.176 L270.848,59.114 C270.848,57.656 269.678,57.278 268.688,57.278 C267.806,57.278 266.96,57.476 266.366,57.908 L266.114,56.846 C266.834,56.414 267.842,56.144 268.814,56.144 C270.524,56.144 272.09,56.882 272.09,59.15 L272.09,62.804 C272.09,63.722 272.162,64.316 273.044,64.172 L273.062,65.09 C271.856,65.324 271.064,65.054 271.046,63.47 Z M270.848,62.102 L270.848,61.238 C270.2,60.914 269.498,60.77 268.832,60.77 C267.77,60.77 266.888,61.184 266.888,62.408 C266.888,63.344 267.554,63.974 268.454,63.974 C269.39,63.974 270.614,63.398 270.848,62.102 Z M275.87,57.584 C275.816,56.252 274.898,56.09 273.764,56.324 L273.782,57.296 C274.628,57.206 274.646,57.674 274.646,58.466 L274.646,65 L275.96,65 L275.96,59.816 C275.96,58.358 276.914,57.404 277.94,57.404 C278.498,57.404 278.948,57.566 279.416,57.926 L279.974,56.792 C279.47,56.36 278.732,56.144 278.084,56.144 C277.13,56.144 276.374,56.594 275.87,57.584 Z M290.756,65 L292.088,65 L292.088,59.744 C292.088,57.386 291.08,56.144 289.154,56.144 C288.038,56.144 287.066,56.738 286.526,57.62 C286.526,56.036 285.41,56.162 284.492,56.306 L284.51,57.422 C285.266,57.332 285.338,57.638 285.338,58.808 L285.338,65 L286.67,65 L286.67,59.798 C286.67,58.34 287.588,57.314 288.776,57.314 C290.072,57.314 290.756,58.178 290.756,59.852 L290.756,65 Z M295.706,54.398 C296.156,54.398 296.534,54.092 296.534,53.588 C296.534,53.048 296.138,52.76 295.706,52.76 C295.238,52.76 294.896,53.12 294.896,53.588 C294.896,54.11 295.274,54.398 295.706,54.398 Z M298.658,54.398 C299.108,54.398 299.468,54.092 299.468,53.588 C299.468,53.066 299.108,52.76 298.658,52.76 C298.19,52.76 297.848,53.12 297.848,53.588 C297.848,54.11 298.226,54.398 298.658,54.398 Z M299.18,63.47 C298.658,64.676 297.434,65.18 296.336,65.18 C294.788,65.18 293.708,64.1 293.708,62.462 C293.708,60.464 295.076,59.69 296.66,59.69 C297.434,59.69 298.244,59.852 298.982,60.176 L298.982,59.114 C298.982,57.656 297.812,57.278 296.822,57.278 C295.94,57.278 295.094,57.476 294.5,57.908 L294.248,56.846 C294.968,56.414 295.976,56.144 296.948,56.144 C298.658,56.144 300.224,56.882 300.224,59.15 L300.224,62.804 C300.224,63.722 300.296,64.316 301.178,64.172 L301.196,65.09 C299.99,65.324 299.198,65.054 299.18,63.47 Z M298.982,62.102 L298.982,61.238 C298.334,60.914 297.632,60.77 296.966,60.77 C295.904,60.77 295.022,61.184 295.022,62.408 C295.022,63.344 295.688,63.974 296.588,63.974 C297.524,63.974 298.748,63.398 298.982,62.102 Z M304.004,57.584 C303.95,56.252 303.032,56.09 301.898,56.324 L301.916,57.296 C302.762,57.206 302.78,57.674 302.78,58.466 L302.78,65 L304.094,65 L304.094,59.816 C304.094,58.358 305.048,57.404 306.074,57.404 C306.632,57.404 307.082,57.566 307.55,57.926 L308.108,56.792 C307.604,56.36 306.866,56.144 306.218,56.144 C305.264,56.144 304.508,56.594 304.004,57.584 Z M29.972,76.462 C29.972,77.074 30.404,77.362 30.818,77.362 C31.232,77.362 31.646,77.074 31.646,76.462 C31.646,75.868 31.232,75.58 30.8,75.58 C30.386,75.58 29.972,75.868 29.972,76.462 Z M31.484,79.324 L30.17,79.324 L30.17,88.936 C30.17,90.43 29.99,91.366 28.91,91.366 C28.748,91.366 28.568,91.33 28.352,91.294 L28.316,92.392 C28.64,92.464 28.964,92.5 29.234,92.5 C30.818,92.482 31.484,91.276 31.484,88.954 L31.484,79.324 Z M38.684,86.47 C38.162,87.676 36.938,88.18 35.84,88.18 C34.292,88.18 33.212,87.1 33.212,85.462 C33.212,83.464 34.58,82.69 36.164,82.69 C36.938,82.69 37.748,82.852 38.486,83.176 L38.486,82.114 C38.486,80.656 37.316,80.278 36.326,80.278 C35.444,80.278 34.598,80.476 34.004,80.908 L33.752,79.846 C34.472,79.414 35.48,79.144 36.452,79.144 C38.162,79.144 39.728,79.882 39.728,82.15 L39.728,85.804 C39.728,86.722 39.8,87.316 40.682,87.172 L40.7,88.09 C39.494,88.324 38.702,88.054 38.684,86.47 Z M38.486,85.102 L38.486,84.238 C37.838,83.914 37.136,83.77 36.47,83.77 C35.408,83.77 34.526,84.184 34.526,85.408 C34.526,86.344 35.192,86.974 36.092,86.974 C37.028,86.974 38.252,86.398 38.486,85.102 Z M47.36,88.702 L47.36,87.352 C46.568,88 45.776,88.18 45.038,88.18 C42.968,88.18 41.6,86.434 41.6,83.698 C41.6,80.782 43.22,79.144 45.668,79.144 C46.73,79.144 47.72,79.468 48.638,79.954 L48.638,88.594 C48.638,90.934 47.234,92.5 45.146,92.5 C44.156,92.5 43.076,92.158 42.122,91.528 L42.338,90.412 C43.202,90.952 44.228,91.33 45.128,91.312 C46.46,91.294 47.36,90.25 47.36,88.702 Z M47.342,86.128 L47.342,80.764 C46.766,80.494 46.19,80.35 45.614,80.35 C44.012,80.35 42.932,81.502 42.932,83.68 C42.932,85.804 43.868,86.974 45.29,86.974 C45.956,86.974 46.658,86.74 47.342,86.128 Z M54.218,85.516 C54.344,87.496 55.91,88.18 57.53,88.18 C59.456,88.126 60.734,87.082 60.752,85.552 C60.788,83.5 59.204,83.212 57.656,82.978 C56.36,82.744 55.676,82.51 55.676,81.664 C55.676,80.818 56.378,80.26 57.494,80.26 C58.394,80.26 59.33,80.692 59.33,81.628 L60.572,81.628 C60.626,79.954 59.06,79.144 57.494,79.144 C55.622,79.144 54.416,80.152 54.416,81.7 C54.416,83.5 56.072,83.878 57.548,84.076 C58.79,84.31 59.492,84.562 59.492,85.552 C59.492,86.47 58.664,87.046 57.512,87.046 C56.576,87.046 55.586,86.614 55.514,85.516 L54.218,85.516 Z M64.442,79.324 L64.442,76.66 L63.308,76.66 L63.164,79.324 L61.562,79.324 L61.562,80.26 L63.11,80.35 L63.11,84.652 C63.11,87.208 64.118,88.18 65.684,88.18 C66.224,88.18 66.89,88.054 67.538,87.766 L67.304,86.686 C66.836,86.902 66.422,87.01 66.044,87.01 C65.036,87.01 64.442,86.326 64.442,84.616 L64.442,80.35 L67.106,80.35 L67.106,79.324 L64.442,79.324 Z M73.712,86.47 C73.19,87.676 71.966,88.18 70.868,88.18 C69.32,88.18 68.24,87.1 68.24,85.462 C68.24,83.464 69.608,82.69 71.192,82.69 C71.966,82.69 72.776,82.852 73.514,83.176 L73.514,82.114 C73.514,80.656 72.344,80.278 71.354,80.278 C70.472,80.278 69.626,80.476 69.032,80.908 L68.78,79.846 C69.5,79.414 70.508,79.144 71.48,79.144 C73.19,79.144 74.756,79.882 74.756,82.15 L74.756,85.804 C74.756,86.722 74.828,87.316 75.71,87.172 L75.728,88.09 C74.522,88.324 73.73,88.054 73.712,86.47 Z M73.514,85.102 L73.514,84.238 C72.866,83.914 72.164,83.77 71.498,83.77 C70.436,83.77 69.554,84.184 69.554,85.408 C69.554,86.344 70.22,86.974 71.12,86.974 C72.056,86.974 73.28,86.398 73.514,85.102 Z M82.73,88 L84.062,88 L84.062,82.744 C84.062,80.386 83.054,79.144 81.128,79.144 C80.012,79.144 79.04,79.738 78.5,80.62 C78.5,79.036 77.384,79.162 76.466,79.306 L76.484,80.422 C77.24,80.332 77.312,80.638 77.312,81.808 L77.312,88 L78.644,88 L78.644,82.798 C78.644,81.34 79.562,80.314 80.75,80.314 C82.046,80.314 82.73,81.178 82.73,82.852 L82.73,88 Z M91.91,88 L93.242,88 L93.242,82.744 C93.242,80.386 92.234,79.144 90.308,79.144 C89.192,79.144 88.22,79.738 87.68,80.62 C87.68,79.036 86.564,79.162 85.646,79.306 L85.664,80.422 C86.42,80.332 86.492,80.638 86.492,81.808 L86.492,88 L87.824,88 L87.824,82.798 C87.824,81.34 88.742,80.314 89.93,80.314 C91.226,80.314 91.91,81.178 91.91,82.852 L91.91,88 Z M100.334,86.47 C99.812,87.676 98.588,88.18 97.49,88.18 C95.942,88.18 94.862,87.1 94.862,85.462 C94.862,83.464 96.23,82.69 97.814,82.69 C98.588,82.69 99.398,82.852 100.136,83.176 L100.136,82.114 C100.136,80.656 98.966,80.278 97.976,80.278 C97.094,80.278 96.248,80.476 95.654,80.908 L95.402,79.846 C96.122,79.414 97.13,79.144 98.102,79.144 C99.812,79.144 101.378,79.882 101.378,82.15 L101.378,85.804 C101.378,86.722 101.45,87.316 102.332,87.172 L102.35,88.09 C101.144,88.324 100.352,88.054 100.334,86.47 Z M100.136,85.102 L100.136,84.238 C99.488,83.914 98.786,83.77 98.12,83.77 C97.058,83.77 96.176,84.184 96.176,85.408 C96.176,86.344 96.842,86.974 97.742,86.974 C98.678,86.974 99.902,86.398 100.136,85.102 Z M105.608,79.324 L105.608,76.66 L104.474,76.66 L104.33,79.324 L102.728,79.324 L102.728,80.26 L104.276,80.35 L104.276,84.652 C104.276,87.208 105.284,88.18 106.85,88.18 C107.39,88.18 108.056,88.054 108.704,87.766 L108.47,86.686 C108.002,86.902 107.588,87.01 107.21,87.01 C106.202,87.01 105.608,86.326 105.608,84.616 L105.608,80.35 L108.272,80.35 L108.272,79.324 L105.608,79.324 Z M137.882,88.162 C138.35,88.162 138.746,87.838 138.746,87.316 C138.746,86.758 138.368,86.452 137.882,86.452 C137.396,86.452 137.036,86.758 137.036,87.316 C137.036,87.838 137.432,88.162 137.882,88.162 Z M151.85,82.096 L151.85,88 L153.272,88 L153.272,75.4 L151.85,75.4 L151.85,80.71 L146.414,80.71 L146.414,75.4 L144.992,75.4 L144.992,88 L146.414,88 L146.414,82.096 L151.85,82.096 Z M157.214,77.398 C157.664,77.398 158.042,77.092 158.042,76.588 C158.042,76.048 157.646,75.76 157.214,75.76 C156.746,75.76 156.404,76.12 156.404,76.588 C156.404,77.11 156.782,77.398 157.214,77.398 Z M160.166,77.398 C160.616,77.398 160.976,77.092 160.976,76.588 C160.976,76.066 160.616,75.76 160.166,75.76 C159.698,75.76 159.356,76.12 159.356,76.588 C159.356,77.11 159.734,77.398 160.166,77.398 Z M160.688,86.47 C160.166,87.676 158.942,88.18 157.844,88.18 C156.296,88.18 155.216,87.1 155.216,85.462 C155.216,83.464 156.584,82.69 158.168,82.69 C158.942,82.69 159.752,82.852 160.49,83.176 L160.49,82.114 C160.49,80.656 159.32,80.278 158.33,80.278 C157.448,80.278 156.602,80.476 156.008,80.908 L155.756,79.846 C156.476,79.414 157.484,79.144 158.456,79.144 C160.166,79.144 161.732,79.882 161.732,82.15 L161.732,85.804 C161.732,86.722 161.804,87.316 162.686,87.172 L162.704,88.09 C161.498,88.324 160.706,88.054 160.688,86.47 Z M160.49,85.102 L160.49,84.238 C159.842,83.914 159.14,83.77 158.474,83.77 C157.412,83.77 156.53,84.184 156.53,85.408 C156.53,86.344 157.196,86.974 158.096,86.974 C159.032,86.974 160.256,86.398 160.49,85.102 Z M165.332,74.806 L164,74.806 L164,85.138 C164,87.388 164.648,88.162 166.196,88.18 C166.484,88.18 166.808,88.144 167.168,88.072 L167.114,86.956 C166.898,86.992 166.7,87.01 166.52,87.01 C165.548,86.992 165.332,86.416 165.332,84.976 L165.332,74.806 Z M167.78,85.516 C167.906,87.496 169.472,88.18 171.092,88.18 C173.018,88.126 174.296,87.082 174.314,85.552 C174.35,83.5 172.766,83.212 171.218,82.978 C169.922,82.744 169.238,82.51 169.238,81.664 C169.238,80.818 169.94,80.26 171.056,80.26 C171.956,80.26 172.892,80.692 172.892,81.628 L174.134,81.628 C174.188,79.954 172.622,79.144 171.056,79.144 C169.184,79.144 167.978,80.152 167.978,81.7 C167.978,83.5 169.634,83.878 171.11,84.076 C172.352,84.31 173.054,84.562 173.054,85.552 C173.054,86.47 172.226,87.046 171.074,87.046 C170.138,87.046 169.148,86.614 169.076,85.516 L167.78,85.516 Z M180.992,86.47 C180.47,87.676 179.246,88.18 178.148,88.18 C176.6,88.18 175.52,87.1 175.52,85.462 C175.52,83.464 176.888,82.69 178.472,82.69 C179.246,82.69 180.056,82.852 180.794,83.176 L180.794,82.114 C180.794,80.656 179.624,80.278 178.634,80.278 C177.752,80.278 176.906,80.476 176.312,80.908 L176.06,79.846 C176.78,79.414 177.788,79.144 178.76,79.144 C180.47,79.144 182.036,79.882 182.036,82.15 L182.036,85.804 C182.036,86.722 182.108,87.316 182.99,87.172 L183.008,88.09 C181.802,88.324 181.01,88.054 180.992,86.47 Z M180.794,85.102 L180.794,84.238 C180.146,83.914 179.444,83.77 178.778,83.77 C177.716,83.77 176.834,84.184 176.834,85.408 C176.834,86.344 177.5,86.974 178.4,86.974 C179.336,86.974 180.56,86.398 180.794,85.102 Z M185.816,80.584 C185.762,79.252 184.844,79.09 183.71,79.324 L183.728,80.296 C184.574,80.206 184.592,80.674 184.592,81.466 L184.592,88 L185.906,88 L185.906,82.816 C185.906,81.358 186.86,80.404 187.886,80.404 C188.444,80.404 188.894,80.566 189.362,80.926 L189.92,79.792 C189.416,79.36 188.678,79.144 188.03,79.144 C187.076,79.144 186.32,79.594 185.816,80.584 Z M202.358,75.4 L198.416,75.4 L198.416,76.732 L200.936,76.732 L200.936,83.752 C200.936,85.714 199.856,86.812 198.326,86.812 C196.796,86.812 195.734,85.75 195.734,83.752 L195.734,82.456 L194.402,82.456 L194.402,83.77 C194.402,86.506 196.076,88.18 198.326,88.18 C200.594,88.18 202.358,86.56 202.358,83.77 L202.358,75.4 Z M212.114,83.644 C212.114,86.362 210.566,88.18 208.226,88.18 C205.886,88.18 204.338,86.362 204.338,83.644 C204.338,80.926 205.886,79.144 208.208,79.144 C210.548,79.144 212.114,80.926 212.114,83.644 Z M205.67,83.644 C205.67,85.642 206.696,86.992 208.226,86.992 C209.756,86.992 210.782,85.642 210.782,83.644 C210.782,81.664 209.756,80.35 208.208,80.35 C206.678,80.35 205.67,81.664 205.67,83.644 Z M219.584,88 L220.916,88 L220.916,82.744 C220.916,80.386 219.908,79.144 217.982,79.144 C216.866,79.144 215.894,79.738 215.354,80.62 C215.354,79.036 214.238,79.162 213.32,79.306 L213.338,80.422 C214.094,80.332 214.166,80.638 214.166,81.808 L214.166,88 L215.498,88 L215.498,82.798 C215.498,81.34 216.416,80.314 217.604,80.314 C218.9,80.314 219.584,81.178 219.584,82.852 L219.584,88 Z M228.764,88 L230.096,88 L230.096,82.744 C230.096,80.386 229.088,79.144 227.162,79.144 C226.046,79.144 225.074,79.738 224.534,80.62 C224.534,79.036 223.418,79.162 222.5,79.306 L222.518,80.422 C223.274,80.332 223.346,80.638 223.346,81.808 L223.346,88 L224.678,88 L224.678,82.798 C224.678,81.34 225.596,80.314 226.784,80.314 C228.08,80.314 228.764,81.178 228.764,82.852 L228.764,88 Z M237.188,86.47 C236.666,87.676 235.442,88.18 234.344,88.18 C232.796,88.18 231.716,87.1 231.716,85.462 C231.716,83.464 233.084,82.69 234.668,82.69 C235.442,82.69 236.252,82.852 236.99,83.176 L236.99,82.114 C236.99,80.656 235.82,80.278 234.83,80.278 C233.948,80.278 233.102,80.476 232.508,80.908 L232.256,79.846 C232.976,79.414 233.984,79.144 234.956,79.144 C236.666,79.144 238.232,79.882 238.232,82.15 L238.232,85.804 C238.232,86.722 238.304,87.316 239.186,87.172 L239.204,88.09 C237.998,88.324 237.206,88.054 237.188,86.47 Z M236.99,85.102 L236.99,84.238 C236.342,83.914 235.64,83.77 234.974,83.77 C233.912,83.77 233.03,84.184 233.03,85.408 C233.03,86.344 233.696,86.974 234.596,86.974 C235.532,86.974 236.756,86.398 236.99,85.102 Z M243.65,79.486 L247.178,88.18 L247.736,88.18 L251.246,79.486 L251.246,79.324 L249.806,79.324 L248.402,83.032 L247.466,85.678 L246.53,83.05 L245.09,79.324 L243.65,79.324 L243.65,79.486 Z M252.614,76.426 C252.614,76.93 252.938,77.272 253.442,77.272 C253.946,77.272 254.27,76.93 254.27,76.426 C254.27,75.922 253.946,75.58 253.442,75.58 C252.938,75.58 252.614,75.922 252.614,76.426 Z M252.776,88 L254.108,88 L254.108,79.324 L252.776,79.324 L252.776,88 Z M261.308,86.47 C260.786,87.676 259.562,88.18 258.464,88.18 C256.916,88.18 255.836,87.1 255.836,85.462 C255.836,83.464 257.204,82.69 258.788,82.69 C259.562,82.69 260.372,82.852 261.11,83.176 L261.11,82.114 C261.11,80.656 259.94,80.278 258.95,80.278 C258.068,80.278 257.222,80.476 256.628,80.908 L256.376,79.846 C257.096,79.414 258.104,79.144 259.076,79.144 C260.786,79.144 262.352,79.882 262.352,82.15 L262.352,85.804 C262.352,86.722 262.424,87.316 263.306,87.172 L263.324,88.09 C262.118,88.324 261.326,88.054 261.308,86.47 Z M261.11,85.102 L261.11,84.238 C260.462,83.914 259.76,83.77 259.094,83.77 C258.032,83.77 257.15,84.184 257.15,85.408 C257.15,86.344 257.816,86.974 258.716,86.974 C259.652,86.974 260.876,86.398 261.11,85.102 Z M277.274,88 L275.78,88 L272.864,83.374 L270.236,83.374 L270.236,88 L268.814,88 L268.814,75.382 L273.134,75.382 C275.33,75.382 276.806,77.002 276.806,79.432 C276.806,81.376 275.708,82.69 274.25,83.122 L277.274,87.784 L277.274,88 Z M270.218,82.132 L273.116,82.132 C274.43,82.132 275.42,81.052 275.42,79.414 C275.42,77.794 274.502,76.714 273.116,76.714 L270.218,76.714 L270.218,82.132 Z M278.732,76.426 C278.732,76.93 279.056,77.272 279.56,77.272 C280.064,77.272 280.388,76.93 280.388,76.426 C280.388,75.922 280.064,75.58 279.56,75.58 C279.056,75.58 278.732,75.922 278.732,76.426 Z M278.894,88 L280.226,88 L280.226,79.324 L278.894,79.324 L278.894,88 Z M288.236,86.326 C287.75,87.568 286.724,88.162 285.572,88.162 C283.376,88.162 282.098,86.362 282.098,83.644 C282.098,80.944 283.592,79.144 285.842,79.144 C286.544,79.144 287.318,79.396 287.93,79.846 L287.93,74.824 L289.262,74.824 L289.262,85.138 C289.262,86.308 289.244,87.19 290.234,87.046 L290.252,88.072 C288.974,88.324 288.236,87.838 288.236,86.326 Z M287.966,84.022 L287.966,81.124 C287.39,80.656 286.742,80.368 286.112,80.368 C284.366,80.368 283.43,81.61 283.43,83.644 C283.43,85.606 284.258,86.902 285.77,86.902 C287.102,86.902 287.966,85.588 287.966,84.022 Z M295.166,79.144 C297.65,79.144 298.874,80.944 298.442,83.806 L292.664,83.806 C292.61,85.84 293.906,87.01 295.472,87.01 C296.336,87.01 297.164,86.794 298.028,86.38 L298.208,87.442 C297.344,87.928 296.39,88.18 295.49,88.18 C293.042,88.18 291.296,86.47 291.368,83.428 C291.44,80.692 293.15,79.144 295.166,79.144 Z M295.166,80.26 C293.888,80.26 292.934,81.16 292.736,82.726 L297.326,82.726 C297.398,80.944 296.408,80.26 295.166,80.26 Z M29.72,107.562 C29.792,110.154 32.006,111.18 34.022,111.18 C36.524,111.18 38.198,109.686 38.198,107.562 C38.198,105.132 36.2,104.25 34.076,103.962 C32.78,103.764 31.34,103.422 31.34,101.73 C31.34,100.488 32.222,99.57 33.86,99.57 C35.048,99.57 36.416,100.038 36.524,101.64 L37.856,101.64 C37.784,99.192 35.75,98.22 33.86,98.22 C31.502,98.22 29.918,99.732 29.918,101.874 C29.918,104.214 31.88,104.952 33.824,105.186 C35.228,105.42 36.794,105.888 36.794,107.562 C36.794,108.966 35.678,109.866 34.004,109.866 C32.744,109.866 31.178,109.254 31.106,107.562 L29.72,107.562 Z M44.912,109.47 C44.39,110.676 43.166,111.18 42.068,111.18 C40.52,111.18 39.44,110.1 39.44,108.462 C39.44,106.464 40.808,105.69 42.392,105.69 C43.166,105.69 43.976,105.852 44.714,106.176 L44.714,105.114 C44.714,103.656 43.544,103.278 42.554,103.278 C41.672,103.278 40.826,103.476 40.232,103.908 L39.98,102.846 C40.7,102.414 41.708,102.144 42.68,102.144 C44.39,102.144 45.956,102.882 45.956,105.15 L45.956,108.804 C45.956,109.722 46.028,110.316 46.91,110.172 L46.928,111.09 C45.722,111.324 44.93,111.054 44.912,109.47 Z M44.714,108.102 L44.714,107.238 C44.066,106.914 43.364,106.77 42.698,106.77 C41.636,106.77 40.754,107.184 40.754,108.408 C40.754,109.344 41.42,109.974 42.32,109.974 C43.256,109.974 44.48,109.398 44.714,108.102 Z M47.396,103.404 L48.908,103.404 L48.908,111 L50.222,111 L50.222,103.404 L52.85,103.404 L52.85,102.324 L50.222,102.324 L50.222,100.848 C50.222,99.3 50.942,98.796 51.752,98.796 C52.22,98.796 52.724,98.958 53.12,99.228 L53.3,98.184 C52.76,97.878 52.13,97.68 51.518,97.68 C50.15,97.68 48.926,98.544 48.926,100.776 L48.926,102.324 L47.396,102.324 L47.396,103.404 Z M57.494,102.144 C59.978,102.144 61.202,103.944 60.77,106.806 L54.992,106.806 C54.938,108.84 56.234,110.01 57.8,110.01 C58.664,110.01 59.492,109.794 60.356,109.38 L60.536,110.442 C59.672,110.928 58.718,111.18 57.818,111.18 C55.37,111.18 53.624,109.47 53.696,106.428 C53.768,103.692 55.478,102.144 57.494,102.144 Z M57.494,103.26 C56.216,103.26 55.262,104.16 55.064,105.726 L59.654,105.726 C59.726,103.944 58.736,103.26 57.494,103.26 Z M63.308,111.162 C63.776,111.162 64.172,110.838 64.172,110.316 C64.172,109.758 63.794,109.452 63.308,109.452 C62.822,109.452 62.462,109.758 62.462,110.316 C62.462,110.838 62.858,111.162 63.308,111.162 Z" id="Du-Hej!-Jag-kör-just" fill="#000000"></path>
                    </g>
                    <rect id="Rectangle-3" fill="#F7F6F0" transform="translate(173.000000, 140.000000) rotate(-315.000000) translate(-173.000000, -140.000000) " x="161" y="128" width="24" height="24"></rect>
                </g>
            </g>
        </g>
    </g>
</svg>