<?xml version="1.0" standalone="no"?>
<!DOCTYPE svg PUBLIC "-//W3C//DTD SVG 20010904//EN"
 "http://www.w3.org/TR/2001/REC-SVG-20010904/DTD/svg10.dtd">
<svg version="1.0" xmlns="http://www.w3.org/2000/svg"
 width="700.000000pt" height="700.000000pt" viewBox="0 0 700.000000 700.000000"
 preserveAspectRatio="xMidYMid meet">
<metadata>
Created by potrace 1.11, written by Peter Selinger 2001-2013
</metadata>
<g transform="translate(0.000000,700.000000) scale(0.100000,-0.100000)"
fill="#000000" stroke="none">
<path d="M3335 5313 c-84 -232 -233 -615 -244 -626 -4 -4 -28 32 -54 80 -25
49 -59 112 -75 141 l-29 54 -50 -94 c-116 -215 -552 -956 -759 -1288 -545
-875 -1073 -1532 -1418 -1764 -54 -36 -28 -32 52 8 262 133 640 493 978 931
244 316 472 665 726 1115 130 230 446 873 464 944 3 15 10 26 14 24 7 -3 114
-143 133 -175 20 -32 -321 -763 -535 -1151 -350 -633 -752 -1169 -1108 -1476
-52 -45 -116 -97 -142 -116 -88 -62 -40 -43 59 23 334 223 736 662 1074 1172
328 495 640 1106 905 1772 49 123 91 223 94 223 3 0 46 -85 96 -188 81 -164
212 -382 263 -435 17 -17 19 -13 41 93 12 61 24 110 25 108 2 -2 44 -74 94
-161 516 -893 1194 -1729 1906 -2352 218 -191 484 -403 474 -378 -2 5 -74 72
-159 148 -876 787 -1759 1948 -2277 2990 -46 94 -87 171 -91 173 -4 1 -21 -62
-37 -139 l-30 -142 -87 179 c-48 98 -118 250 -155 337 -37 86 -70 157 -74 157
-3 0 -36 -84 -74 -187z"/>
</g>
</svg>
