<?xml version="1.0" encoding="utf-8"?>
<!-- Generator: Adobe Illustrator 16.0.0, SVG Export Plug-In . SVG Version: 6.00 Build 0)  -->
<!DOCTYPE svg PUBLIC "-//W3C//DTD SVG 1.1//EN" "http://www.w3.org/Graphics/SVG/1.1/DTD/svg11.dtd">
<svg version="1.1" id="Layer_1" xmlns="http://www.w3.org/2000/svg" xmlns:xlink="http://www.w3.org/1999/xlink" x="0px" y="0px"
	 width="610px" height="610px" viewBox="0 0 610 610" enable-background="new 0 0 610 610" xml:space="preserve">
<circle fill="#EFF3F3" cx="305" cy="305" r="305"/>
<image display="none" overflow="visible" enable-background="new    " width="731" height="466" xlink:href="C4E23C7B98EEEE58.png"  transform="matrix(0.6746 0 0 0.6746 58.4248 139.8125)">
</image>
<g>
	<path d="M58.425,454.176c0.787-0.411,1.531-0.902,2.277-1.372l1.115-0.702l1.083-0.764c1.438-1.026,2.899-1.992,4.254-3.131
		c1.372-1.107,2.769-2.169,4.145-3.253l3.971-3.474c2.681-2.258,5.18-4.738,7.728-7.147l3.8-3.626l3.628-3.82l3.624-3.81
		c1.208-1.269,2.458-2.486,3.592-3.834l6.959-7.888c1.155-1.315,2.343-2.598,3.47-3.939l3.323-4.083l6.677-8.12
		c2.265-2.666,4.341-5.506,6.483-8.281l6.392-8.354l3.217-4.155l3.061-4.285l6.136-8.554l6.163-8.525l5.891-8.736l5.912-8.719
		l2.964-4.354c0.993-1.447,2.004-2.882,2.929-4.378c3.789-5.922,7.543-11.864,11.38-17.755l5.727-8.854l5.482-9.019
		c3.677-6,7.325-12.017,11.053-17.99l2.784-4.488l2.66-4.563l5.349-9.114c3.558-6.082,7.17-12.135,10.787-18.19l2.711-4.542
		l2.61-4.601l5.234-9.199c3.511-6.123,7.042-12.239,10.615-18.338l2.691-4.569l1.356-2.28l0.339-0.57l0.084-0.142l0.042-0.071
		c-0.105,0.226-0.007,0.02-0.021,0.051l0.151-0.296l0.603-1.183l4.822-9.464l1.74-3.415l1.77,3.166
		c1.152,2.061,2.248,4.158,3.374,6.235l3.358,6.246c1.129,2.075,2.212,4.18,3.312,6.273c1.1,2.094,2.197,4.188,3.267,6.302
		c-1.43-1.887-2.833-3.792-4.233-5.698c-1.399-1.907-2.816-3.802-4.188-5.727l-4.142-5.755c-1.374-1.923-2.778-3.826-4.126-5.765
		l3.51-0.249l-3.774,9.929l-0.472,1.241l-0.118,0.311l-0.193,0.429l-0.276,0.604l-1.104,2.418l-2.228,4.827
		c-2.986,6.43-6.015,12.841-9.063,19.246l-4.605,9.593l-2.309,4.795c-0.797,1.584-1.638,3.146-2.455,4.72
		c-3.287,6.287-6.578,12.575-9.923,18.835l-5.006,9.399l-2.538,4.681l-2.666,4.612c-3.537,6.16-7.154,12.275-10.742,18.407
		l-5.416,9.18l-5.736,8.992c-3.81,6.007-7.7,11.961-11.557,17.936c-0.944,1.506-1.979,2.956-2.995,4.417l-3.069,4.371l-6.156,8.728
		l-6.176,8.709l-6.527,8.471l-6.557,8.441l-3.29,4.209l-3.455,4.09l-6.952,8.136c-2.333,2.696-4.575,5.464-7.083,8.02l-7.341,7.801
		l-3.687,3.878c-1.251,1.271-2.568,2.487-3.849,3.732l-7.752,7.396c-2.586,2.457-5.385,4.712-8.09,7.04l-4.082,3.463l-4.257,3.27
		l-4.254,3.254l-1.073,0.799l-1.118,0.746l-2.231,1.492l-4.452,2.972c-1.545,0.907-3.074,1.83-4.625,2.712
		c-1.519,0.926-3.152,1.682-4.739,2.482c-0.79,0.405-1.591,0.797-2.427,1.124C60.079,453.55,59.27,453.904,58.425,454.176z"/>
</g>
<g>
	<path d="M107.5,446.5c3.194-1.977,6.203-4.224,9.157-6.524c2.945-2.314,5.817-4.719,8.617-7.202
		c5.6-4.966,11.015-10.129,16.172-15.543c1.312-1.329,2.591-2.692,3.85-4.074l3.795-4.123c2.445-2.829,5-5.55,7.383-8.43
		c2.409-2.855,4.84-5.688,7.151-8.623l3.508-4.365c1.158-1.465,2.275-2.963,3.414-4.44l3.401-4.446l3.304-4.522l3.31-4.515
		c1.11-1.498,2.151-3.051,3.23-4.572c4.331-6.079,8.44-12.314,12.537-18.551l5.986-9.463c1.99-3.154,3.865-6.387,5.802-9.574
		l2.895-4.789l2.802-4.848c1.856-3.237,3.761-6.444,5.578-9.705c3.574-6.557,7.252-13.048,10.638-19.706
		c1.715-3.315,3.471-6.607,5.152-9.94l4.962-10.041l2.489-5.014l2.408-5.056l4.806-10.116c3.159-6.765,6.156-13.608,9.242-20.406
		c2.92-6.876,5.88-13.733,8.758-20.625l8.367-20.791c2.684-6.974,5.417-13.927,8.061-20.916l7.689-21.061l5.13-14.051l5.837,13.761
		c1.05,2.476,2.16,5.008,3.263,7.506l3.37,7.494c2.271,4.985,4.612,9.931,7.016,14.83c1.195,2.455,2.431,4.878,3.668,7.299
		l1.877,3.606c0.622,1.207,1.263,2.394,1.916,3.568c0.655,1.17,1.278,2.381,1.961,3.517l2.018,3.443l2.091,3.32l2.166,3.109
		l-10.602,2.312l5.035-22.992l3.679-16.8l7.467,15.505c1.513,3.141,3.174,6.421,4.832,9.618c1.668,3.214,3.372,6.416,5.1,9.608
		c3.468,6.379,7.021,12.72,10.67,19.01l5.491,9.429c1.875,3.117,3.717,6.254,5.62,9.356c3.788,6.214,7.644,12.389,11.578,18.515
		c3.928,6.13,7.947,12.202,12.011,18.246l6.161,9.021l6.247,8.963c4.212,5.942,8.419,11.892,12.776,17.73
		c4.291,5.892,8.75,11.652,13.172,17.447c4.503,5.729,9.011,11.459,13.612,17.112c4.532,5.714,9.269,11.255,13.932,16.866
		l7.161,8.27l3.592,4.129l3.662,4.063l7.329,8.13l7.445,8.027c2.46,2.698,5.018,5.303,7.554,7.929
		c2.549,2.613,5.054,5.275,7.643,7.851c5.218,5.107,10.303,10.367,15.64,15.361c2.65,2.516,5.268,5.073,7.949,7.559l8.099,7.405
		c1.352,1.233,2.684,2.491,4.051,3.706l4.131,3.616l8.25,7.261l-8.775-6.62l-4.382-3.325c-1.454-1.117-2.87-2.279-4.309-3.419
		l-8.578-6.896c-2.835-2.328-5.607-4.73-8.417-7.094c-5.651-4.689-11.082-9.633-16.56-14.529c-2.729-2.459-5.374-5.005-8.066-7.505
		c-2.681-2.513-5.383-5.005-7.987-7.595l-7.892-7.703c-2.616-2.58-5.147-5.244-7.723-7.869l-3.849-3.951l-3.778-4.016l-7.541-8.053
		c-4.916-5.468-9.911-10.873-14.704-16.455c-4.891-5.5-9.536-11.205-14.265-16.845c-4.625-5.722-9.292-11.416-13.791-17.239
		c-4.565-5.774-8.982-11.664-13.406-17.549l-6.539-8.9l-6.382-9.014c-4.211-6.04-8.38-12.111-12.458-18.245
		c-4.085-6.128-8.092-12.311-12.032-18.536c-1.979-3.107-3.898-6.252-5.853-9.377l-5.727-9.46
		c-3.758-6.344-7.418-12.75-11.001-19.208c-1.785-3.233-3.55-6.479-5.282-9.751c-1.74-3.288-3.42-6.526-5.112-9.968l11.145-1.295
		l-4.965,23.007l-2.875,13.32l-7.727-11.008l-2.584-3.682l-2.337-3.686l-2.183-3.7c-0.742-1.231-1.389-2.477-2.086-3.715
		c-0.693-1.238-1.368-2.48-2.016-3.728c-0.65-1.247-1.325-2.488-1.957-3.74c-1.265-2.505-2.522-5.012-3.731-7.531
		c-2.436-5.035-4.795-10.09-7.076-15.174l-3.385-7.641c-1.114-2.562-2.209-5.097-3.302-7.712l10.967-0.29l-7.878,21.211
		c-2.708,7.041-5.507,14.048-8.256,21.073c-1.373,3.514-2.883,6.974-4.341,10.454l-4.405,10.427
		c-3.025,6.915-6.132,13.794-9.199,20.689c-3.235,6.822-6.38,13.684-9.688,20.47l-5.032,10.146l-2.52,5.07l-2.641,5.011
		l-5.299,10.011c-1.794,3.322-3.664,6.605-5.492,9.91c-3.61,6.632-7.517,13.103-11.315,19.629c-1.929,3.245-3.948,6.44-5.917,9.663
		l-2.971,4.822l-3.086,4.754c-2.085,3.149-4.106,6.34-6.243,9.455l-6.424,9.336c-4.39,6.15-8.788,12.291-13.407,18.271
		c-2.258,3.027-4.61,5.984-6.983,8.924l-3.563,4.403l-3.659,4.327c-1.225,1.438-2.427,2.893-3.67,4.313l-3.762,4.236
		c-2.478,2.849-5.078,5.591-7.651,8.353c-1.274,1.393-2.589,2.747-3.917,4.091l-3.97,4.036l-4.077,3.933
		c-1.351,1.315-2.722,2.611-4.125,3.875c-5.531,5.133-11.265,10.051-17.239,14.65c-2.987,2.301-6.041,4.514-9.156,6.628
		C114.037,442.77,110.844,444.782,107.5,446.5z"/>
</g>
</svg>
